<?xml version="1.0" encoding="UTF-8" standalone="no"?>
<svg
   xmlns:dc="http://purl.org/dc/elements/1.1/"
   xmlns:cc="http://creativecommons.org/ns#"
   xmlns:rdf="http://www.w3.org/1999/02/22-rdf-syntax-ns#"
   xmlns:svg="http://www.w3.org/2000/svg"
   xmlns="http://www.w3.org/2000/svg"
   xmlns:xlink="http://www.w3.org/1999/xlink"
   xmlns:sodipodi="http://sodipodi.sourceforge.net/DTD/sodipodi-0.dtd"
   xmlns:inkscape="http://www.inkscape.org/namespaces/inkscape"
   width="1280"
   height="720"
   viewBox="0 0 338.66667 190.5"
   version="1.1"
   id="svg8"
   inkscape:version="1.0.1 (3bc2e813f5, 2020-09-07)"
   sodipodi:docname="Banner.svg"
   inkscape:export-filename="D:\Projects\CSharpProjects\Material.Avalonia\Material.Demo\FavIcon_200x.png"
   inkscape:export-xdpi="400"
   inkscape:export-ydpi="400">
  <defs
     id="defs2">
    <linearGradient
       inkscape:collect="always"
       id="linearGradient896">
      <stop
         style="stop-color:#663481;stop-opacity:1"
         offset="0"
         id="stop892" />
      <stop
         style="stop-color:#8b44ac;stop-opacity:1"
         offset="1"
         id="stop894" />
    </linearGradient>
    <inkscape:perspective
       sodipodi:type="inkscape:persp3d"
       inkscape:vp_x="0 : 355.6 : 1"
       inkscape:vp_y="0 : 1000 : 0"
       inkscape:vp_z="16.792565 : 355.85057 : 1"
       inkscape:persp3d-origin="6.3500001 : 353.48333 : 1"
       id="perspective42" />
    <filter
       inkscape:collect="always"
       style="color-interpolation-filters:sRGB"
       id="filter1529"
       x="-0.046412673"
       width="1.0928253"
       y="-0.10218951"
       height="1.204379">
      <feGaussianBlur
         inkscape:collect="always"
         stdDeviation="0.14960497"
         id="feGaussianBlur1531" />
    </filter>
    <filter
       inkscape:collect="always"
       style="color-interpolation-filters:sRGB"
       id="filter1529-8"
       x="-0.046412673"
       width="1.0928253"
       y="-0.10218951"
       height="1.204379">
      <feGaussianBlur
         inkscape:collect="always"
         stdDeviation="0.14960497"
         id="feGaussianBlur1531-7" />
    </filter>
    <filter
       inkscape:collect="always"
       style="color-interpolation-filters:sRGB"
       id="filter1529-8-0"
       x="-0.046412673"
       width="1.0928253"
       y="-0.10218951"
       height="1.204379">
      <feGaussianBlur
         inkscape:collect="always"
         stdDeviation="0.14960497"
         id="feGaussianBlur1531-7-2" />
    </filter>
    <filter
       inkscape:collect="always"
       style="color-interpolation-filters:sRGB"
       id="filter1529-8-0-9"
       x="-0.046412673"
       width="1.0928253"
       y="-0.10218951"
       height="1.204379">
      <feGaussianBlur
         inkscape:collect="always"
         stdDeviation="0.14960497"
         id="feGaussianBlur1531-7-2-8" />
    </filter>
    <linearGradient
       inkscape:collect="always"
       xlink:href="#linearGradient896"
       id="linearGradient898-0"
       x1="112.09926"
       y1="556.44598"
       x2="442.89478"
       y2="285.79514"
       gradientUnits="userSpaceOnUse"
       gradientTransform="matrix(0.00445478,0,0,0.00445478,26.037369,14.067162)" />
    <linearGradient
       inkscape:collect="always"
       xlink:href="#linearGradient896"
       id="linearGradient1043"
       gradientUnits="userSpaceOnUse"
       gradientTransform="matrix(0.1008994,0.04352024,-0.09827649,0.04373235,636.77019,113.93147)"
       x1="112.09926"
       y1="556.44598"
       x2="442.89478"
       y2="285.79514" />
    <linearGradient
       inkscape:collect="always"
       xlink:href="#linearGradient896"
       id="linearGradient1275"
       x1="168.58513"
       y1="122.44372"
       x2="166.48705"
       y2="121.78828"
       gradientUnits="userSpaceOnUse" />
  </defs>
  <sodipodi:namedview
     id="base"
     pagecolor="#ffffff"
     bordercolor="#666666"
     borderopacity="1.0"
     inkscape:pageopacity="0.0"
     inkscape:pageshadow="2"
     inkscape:zoom="1"
     inkscape:cx="546.8404"
     inkscape:cy="402.22318"
     inkscape:document-units="mm"
     inkscape:current-layer="layer1"
     inkscape:document-rotation="0"
     showgrid="true"
     units="px"
     inkscape:window-width="1920"
     inkscape:window-height="1017"
     inkscape:window-x="760"
     inkscape:window-y="-8"
     inkscape:window-maximized="1"
     width="128px"
     inkscape:snap-path-mask="true"
     inkscape:snap-path-clip="true" />
  <metadata
     id="metadata5">
    <rdf:RDF>
      <cc:Work
         rdf:about="">
        <dc:format>image/svg+xml</dc:format>
        <dc:type
           rdf:resource="http://purl.org/dc/dcmitype/StillImage" />
        <dc:title />
      </cc:Work>
    </rdf:RDF>
  </metadata>
  <g
     inkscape:label="Слой 1"
     inkscape:groupmode="layer"
     id="layer1">
    <g
       id="g901"
       transform="matrix(7.8647492,0,0,7.8647492,59.188766,26.962839)">
      <circle
         style="fill:#f5eef7;fill-opacity:1;stroke:none;stroke-width:0.287951;stroke-linecap:square;stroke-miterlimit:4;stroke-dasharray:none;stroke-opacity:1;paint-order:stroke fill markers"
         id="path881"
         cx="27.610304"
         cy="15.533154"
         r="2.3" />
      <rect
         style="fill:#f5eef7;fill-opacity:1;stroke:none;stroke-width:0.333328;stroke-linecap:square;stroke-miterlimit:4;stroke-dasharray:none;stroke-opacity:1;paint-order:stroke fill markers"
         id="rect893"
         width="3.0933816"
         height="3.2224536"
         x="26.816923"
         y="14.610701"
         ry="1.0629624" />
      <path
         id="circle4-6"
         style="fill:url(#linearGradient898-0);fill-opacity:1;stroke-width:0.00861446"
         d="m 27.610303,14.023948 a 1.5092502,1.5092502 0 0 0 -1.509206,1.509207 1.5092502,1.5092502 0 0 0 1.509206,1.509206 1.5092502,1.5092502 0 0 0 1.509207,-1.509206 1.5092502,1.5092502 0 0 0 -1.509207,-1.509207 z m 0,0.814521 a 0.69464725,0.69464725 0 0 1 0.694686,0.694686 0.69464725,0.69464725 0 0 1 -0.694686,0.694685 0.69464725,0.69464725 0 0 1 -0.694685,-0.694685 0.69464725,0.69464725 0 0 1 0.694685,-0.694686 z" />
      <g
         id="g891">
        <circle
           style="fill:#5d2f75;stroke:#ffffff;stroke-width:0.125421;stroke-miterlimit:10"
           id="circle21"
           r="0.3273499"
           cy="15.533231"
           cx="26.107803"
           class="st3" />
        <path
           id="rect19"
           style="fill:#8b44ac;stroke-width:0.0134893"
           d="m 28.30525,15.514316 v 1.528569 h 0.809289 v -1.528569 z" />
      </g>
    </g>
    <rect
       style="fill:#000000;fill-opacity:0.200803;fill-rule:evenodd;stroke-width:0.275241;filter:url(#filter1529-8-0-9)"
       id="rect58-1-1-2-1-2"
       width="3.199091"
       height="3.199091"
       x="-4.1320586"
       y="6.7448502"
       ry="0"
       transform="matrix(11.516892,-5.2307688,11.516892,5.2307688,102.41321,25.770542)" />
    <rect
       style="fill:#8b44ac;fill-opacity:1;fill-rule:evenodd;stroke-width:3.48155"
       id="rect58-0-0-9-7"
       width="40.465622"
       height="40.465622"
       x="-23.138884"
       y="168.66969"
       ry="3.6434028"
       transform="matrix(0.91049097,-0.41352895,0.91049097,0.41352895,0,0)" />
    <rect
       style="fill:#000000;fill-opacity:0.200803;fill-rule:evenodd;stroke-width:0.275241;filter:url(#filter1529-8-0)"
       id="rect58-1-1-2-1"
       width="3.199091"
       height="3.199091"
       x="-4.1320586"
       y="6.7448502"
       ry="0"
       transform="matrix(11.516892,-5.2307688,11.516892,5.2307688,102.38378,12.383578)" />
    <rect
       style="fill:#ffdc00;fill-opacity:1;fill-rule:evenodd;stroke-width:3.48155"
       id="rect58-0-0-4"
       width="40.465622"
       height="40.465622"
       x="-6.9526424"
       y="152.48343"
       ry="3.6434147"
       transform="matrix(0.91049097,-0.41352895,0.91049097,0.41352895,0,0)" />
    <rect
       style="fill:#000000;fill-opacity:0.200803;fill-rule:evenodd;stroke-width:0.275241;filter:url(#filter1529-8)"
       id="rect58-1-1-2"
       width="3.199091"
       height="3.199091"
       x="-4.1320586"
       y="6.7448502"
       ry="0"
       transform="matrix(11.516892,-5.2307688,11.516892,5.2307688,102.38378,-1.0033868)" />
    <rect
       style="fill:#ff86ff;fill-opacity:1;fill-rule:evenodd;stroke-width:3.48155"
       id="rect58-0-9"
       width="40.465622"
       height="40.465622"
       x="9.217432"
       y="136.28101"
       ry="3.6757557"
       transform="matrix(0.91049097,-0.41352895,0.91049097,0.41352895,0,0)" />
    <rect
       style="fill:#000000;fill-opacity:0.200803;fill-rule:evenodd;stroke-width:0.275241;filter:url(#filter1529)"
       id="rect58-1-1"
       width="3.199091"
       height="3.199091"
       x="-4.1320586"
       y="6.7448502"
       ry="0"
       transform="matrix(11.516891,-5.2307689,11.516891,5.2307689,102.38378,-14.390351)" />
    <rect
       style="fill:#00aeff;fill-opacity:1;fill-rule:evenodd;stroke-width:3.48155"
       id="rect58-1"
       width="40.465622"
       height="40.465622"
       x="25.419847"
       y="120.11092"
       ry="3.6434269"
       transform="matrix(0.91049097,-0.41352895,0.91049097,0.41352895,0,0)" />
    <g
       id="g1392">
      <path
         id="circle4-6-4"
         style="fill:url(#linearGradient1043);fill-opacity:1;stroke-width:0.180261"
         d="M 639.2207 122.78906 A 47.719967 20.901067 0.33344137 0 0 615.58008 125.63281 C 619.46707 127.73722 619.27535 130.84611 614.84766 132.81641 C 610.4201 134.78678 603.32635 134.91971 598.46289 133.25 A 47.719967 20.901067 0.33344137 0 0 606.76172 158.50586 A 47.719967 20.901067 0.33344137 0 0 674.23828 158.43359 A 47.719967 20.901067 0.33344137 0 0 673.34961 128.87305 A 47.719967 20.901067 0.33344137 0 0 639.2207 122.78906 z M 612.19922 126.58984 A 47.719967 20.901067 0.33344137 0 0 605.87305 128.94531 A 47.719967 20.901067 0.33344137 0 0 600.60352 131.74805 C 603.96237 133.03138 608.93945 132.98021 612.0332 131.60352 C 615.12787 130.2264 615.18379 128.04096 612.19922 126.58984 z M 639.55859 134.06836 A 21.963584 9.6199219 0.33344137 0 1 655.38086 136.87109 L 655.38086 136.86914 A 21.963584 9.6199219 0.33344137 0 1 655.78906 150.47656 A 21.963584 9.6199219 0.33344137 0 1 624.73047 150.50977 A 21.963584 9.6199219 0.33344137 0 1 624.32031 136.90234 A 21.963584 9.6199219 0.33344137 0 1 639.55859 134.06836 z "
         transform="scale(0.26458333)" />
      <path
         id="path1347"
         style="color:#000000;font-style:normal;font-variant:normal;font-weight:normal;font-stretch:normal;font-size:medium;line-height:normal;font-family:sans-serif;font-variant-ligatures:normal;font-variant-position:normal;font-variant-caps:normal;font-variant-numeric:normal;font-variant-alternates:normal;font-variant-east-asian:normal;font-feature-settings:normal;font-variation-settings:normal;text-indent:0;text-align:start;text-decoration:none;text-decoration-line:none;text-decoration-style:solid;text-decoration-color:#000000;letter-spacing:normal;word-spacing:normal;text-transform:none;writing-mode:lr-tb;direction:ltr;text-orientation:mixed;dominant-baseline:auto;baseline-shift:baseline;text-anchor:start;white-space:normal;shape-padding:0;shape-margin:0;inline-size:0;clip-rule:nonzero;display:inline;overflow:visible;visibility:visible;isolation:auto;mix-blend-mode:normal;color-interpolation:sRGB;color-interpolation-filters:linearRGB;solid-color:#000000;solid-opacity:1;vector-effect:none;fill:#5d2f75;fill-opacity:1;fill-rule:nonzero;stroke:none;stroke-width:2.62449;stroke-linecap:butt;stroke-linejoin:miter;stroke-miterlimit:10;stroke-dasharray:none;stroke-dashoffset:0;stroke-opacity:1;color-rendering:auto;image-rendering:auto;shape-rendering:auto;text-rendering:auto;enable-background:accumulate;stop-color:#000000"
         d="M 605.87891 125.3418 C 603.74342 125.34349 601.62385 125.70428 600.01562 126.41992 C 596.7991 127.85121 596.84393 130.158 600.19531 131.60352 C 603.54666 133.04904 608.81675 133.03481 612.0332 131.60352 C 615.24962 130.17223 615.19314 127.86544 611.8418 126.41992 C 610.16611 125.69716 608.0144 125.3401 605.87891 125.3418 z "
         transform="scale(0.26458333)" />
      <path
         id="rect19-7"
         style="fill:#8b44ac;stroke-width:0.0746834"
         d="m 173.62262,39.765231 -8.92217,3.970304 4.84985,2.091852 8.92217,-3.970304 z" />
    </g>
    <path
       d="m 27.837863,149.08068 q 0,-2.33578 0.62012,-4.48552 0.63045,-2.14974 1.87069,-3.90674 1.24024,-1.757 2.57349,-2.48047 l 0.39274,1.2609 q -1.50895,1.15756 -2.48047,3.53468 -0.96118,2.37711 -1.0542,5.32268 l -0.0103,0.8785 q 0,3.98942 1.45727,6.92465 0.8785,1.757 2.08773,2.74919 l -0.39274,1.16789 q -1.37459,-0.7648 -2.62516,-2.56316 -2.43913,-3.514 -2.43913,-8.4026 z"
       style="font-size:2.11667px;line-height:1.25;font-family:Roboto;-inkscape-font-specification:Roboto;fill:#af7fc7;fill-opacity:1;stroke:#ffffff;stroke-width:2.65;stroke-miterlimit:4;stroke-dasharray:none;stroke-opacity:1;paint-order:stroke fill markers"
       id="path909" />
    <path
       d="m 42.048903,155.18885 q -0.16536,-0.3307 -0.26872,-1.17823 -1.33325,1.38493 -3.18327,1.38493 -1.65365,0 -2.71819,-0.9302 -1.0542,-0.9405 -1.0542,-2.37712 0,-1.74667 1.32292,-2.70785 1.33325,-0.9715 3.74138,-0.9715 h 1.86035 v -0.8785 q 0,-1.00253 -0.59945,-1.59164 -0.59945,-0.5995 -1.76733,-0.5995 -1.0232,0 -1.71566,0.5168 -0.69247,0.5168 -0.69247,1.25057 h -1.92236 q 0,-0.8372 0.58911,-1.61231 0.59945,-0.7855 1.61231,-1.24023 1.02319,-0.4548 2.24276,-0.4548 1.9327,0 3.02824,0.9715 1.09554,0.9612 1.13689,2.65617 v 5.14699 q 0,1.53996 0.39274,2.44946 v 0.1654 z m -3.17294,-1.45728 q 0.89917,0 1.70533,-0.4651 0.80615,-0.4651 1.16789,-1.20923 v -2.29443 h -1.49862 q -3.51401,0 -3.51401,2.05673 0,0.8992 0.59945,1.4056 0.59945,0.5064 1.53996,0.5064 z"
       style="font-size:2.11667px;line-height:1.25;font-family:Roboto;-inkscape-font-specification:Roboto;fill:#af7fc7;fill-opacity:1;stroke:#ffffff;stroke-width:2.65;stroke-miterlimit:4;stroke-dasharray:none;stroke-opacity:1;paint-order:stroke fill markers"
       id="path911" />
    <path
       d="m 49.779713,150.01086 -1.1989,1.25057 v 3.92742 h -1.91203 v -15.87503 h 1.91203 v 9.6015 l 1.0232,-1.2299 3.482993,-3.67937 h 2.325443 l -4.351166,4.67156 4.857596,6.51124 h -2.242761 z"
       style="font-size:2.11667px;line-height:1.25;font-family:Roboto;-inkscape-font-specification:Roboto;fill:#af7fc7;fill-opacity:1;stroke:#ffffff;stroke-width:2.65;stroke-miterlimit:4;stroke-dasharray:none;stroke-opacity:1;paint-order:stroke fill markers"
       id="path913" />
    <path
       d="m 64.290472,155.18885 q -0.16536,-0.3307 -0.26872,-1.17823 -1.333254,1.38493 -3.183273,1.38493 -1.653648,0 -2.718184,-0.9302 -1.054201,-0.9405 -1.054201,-2.37712 0,-1.74667 1.322919,-2.70785 1.333254,-0.9715 3.741379,-0.9715 h 1.860355 v -0.8785 q 0,-1.00253 -0.59945,-1.59164 -0.59945,-0.5995 -1.767337,-0.5995 -1.023195,0 -1.71566,0.5168 -0.69247,0.5168 -0.69247,1.25057 h -1.922357 q 0,-0.8372 0.58911,-1.61231 0.59945,-0.7855 1.612307,-1.24023 1.023195,-0.4548 2.242761,-0.4548 1.932701,0 3.028243,0.9715 1.095542,0.9612 1.136883,2.65617 v 5.14699 q 0,1.53996 0.39274,2.44946 v 0.1654 z m -3.172938,-1.45728 q 0.89917,0 1.705325,-0.4651 0.80615,-0.4651 1.16789,-1.20923 v -2.29443 H 62.49213 q -3.514003,0 -3.514003,2.05673 0,0.8992 0.59945,1.4056 0.59945,0.5064 1.53996,0.5064 z"
       style="font-size:2.11667px;line-height:1.25;font-family:Roboto;-inkscape-font-specification:Roboto;fill:#af7fc7;fill-opacity:1;stroke:#ffffff;stroke-width:2.65;stroke-miterlimit:4;stroke-dasharray:none;stroke-opacity:1;paint-order:stroke fill markers"
       id="path915" />
    <path
       d="m 68.94136,154.18632 q 0,-0.4961 0.28939,-0.8268 0.29972,-0.3307 0.88884,-0.3307 0.58911,0 0.88884,0.3307 0.31006,0.3307 0.31006,0.8268 0,0.4754 -0.31006,0.7958 -0.29972,0.3204 -0.88884,0.3204 -0.58911,0 -0.88884,-0.3204 -0.28939,-0.3204 -0.28939,-0.7958 z"
       style="font-size:2.11667px;line-height:1.25;font-family:Roboto;-inkscape-font-specification:Roboto;fill:#af7fc7;fill-opacity:1;stroke:#ffffff;stroke-width:2.65;stroke-miterlimit:4;stroke-dasharray:none;stroke-opacity:1;paint-order:stroke fill markers"
       id="path917" />
    <path
       d="m 82.573621,140.14065 4.919604,12.27834 4.919604,-12.27834 h 2.57349 v 15.0482 h -1.984378 v -5.86012 l 0.18604,-6.3252 -4.940275,12.18532 h -1.519293 l -4.929939,-12.15432 0.19637,6.2942 v 5.86012 h -1.984378 v -15.0482 z"
       style="font-size:2.11667px;line-height:1.25;font-family:Roboto;-inkscape-font-specification:Roboto;fill:#af7fc7;fill-opacity:1;stroke:#ffffff;stroke-width:2.65;stroke-miterlimit:4;stroke-dasharray:none;stroke-opacity:1;paint-order:stroke fill markers"
       id="path919" />
    <path
       d="m 105.09425,155.18885 q -0.1654,-0.3307 -0.2687,-1.17823 -1.33325,1.38493 -3.18327,1.38493 -1.653651,0 -2.718187,-0.9302 -1.054201,-0.9405 -1.054201,-2.37712 0,-1.74667 1.322919,-2.70785 1.333249,-0.9715 3.741379,-0.9715 h 1.86035 v -0.8785 q 0,-1.00253 -0.5994,-1.59164 -0.5995,-0.5995 -1.76734,-0.5995 -1.0232,0 -1.71566,0.5168 -0.6925,0.5168 -0.6925,1.25057 h -1.922392 q 0,-0.8372 0.58911,-1.61231 0.59945,-0.7855 1.612312,-1.24023 1.02319,-0.4548 2.24276,-0.4548 1.9327,0 3.02824,0.9715 1.09554,0.9612 1.13688,2.65617 v 5.14699 q 0,1.53996 0.3927,2.44946 v 0.1654 z m -3.17294,-1.45728 q 0.8992,0 1.70532,-0.4651 0.8062,-0.4651 1.16789,-1.20923 v -2.29444 h -1.49862 q -3.513997,0 -3.513997,2.05673 0,0.8992 0.599447,1.4056 0.5994,0.5064 1.53996,0.5064 z"
       style="font-size:2.11667px;line-height:1.25;font-family:Roboto;-inkscape-font-specification:Roboto;fill:#af7fc7;fill-opacity:1;stroke:#ffffff;stroke-width:2.65;stroke-miterlimit:4;stroke-dasharray:none;stroke-opacity:1;paint-order:stroke fill markers"
       id="path921" />
    <path
       d="m 112.29795,141.2982 v 2.70785 h 2.08774 v 1.47795 h -2.08774 v 6.93499 q 0,0.6718 0.2791,1.01286 0.2791,0.3307 0.9509,0.3307 0.3307,0 0.9095,-0.124 v 1.5503 q -0.7545,0.2067 -1.46761,0.2067 -1.28158,0 -1.9327,-0.7752 -0.6511,-0.7751 -0.6511,-2.20141 V 145.484 h -2.03605 v -1.47795 h 2.03605 v -2.70785 z"
       style="font-size:2.11667px;line-height:1.25;font-family:Roboto;-inkscape-font-specification:Roboto;fill:#af7fc7;fill-opacity:1;stroke:#ffffff;stroke-width:2.65;stroke-miterlimit:4;stroke-dasharray:none;stroke-opacity:1;paint-order:stroke fill markers"
       id="path923" />
    <path
       d="m 121.25866,155.39555 q -2.27377,0 -3.70004,-1.48828 -1.42627,-1.49862 -1.42627,-3.99976 v -0.3514 q 0,-1.66399 0.6305,-2.96623 0.6408,-1.31259 1.77767,-2.04639 1.14722,-0.7442 2.48047,-0.7442 2.18075,0 3.38998,1.43661 1.20923,1.43661 1.20923,4.11345 v 0.7958 h -7.57582 q 0.041,1.65365 0.9612,2.67684 0.9302,1.01286 2.35645,1.01286 1.01286,0 1.71566,-0.4134 0.7028,-0.4134 1.2299,-1.09554 l 1.16789,0.9095 q -1.4056,2.16008 -4.2168,2.16008 z m -0.2377,-10.02524 q -1.15755,0 -1.94303,0.8475 -0.7855,0.8372 -0.9715,2.35645 h 5.60173 v -0.1447 q -0.083,-1.45728 -0.7855,-2.2531 -0.7028,-0.8061 -1.9017,-0.8061 z"
       style="font-size:2.11667px;line-height:1.25;font-family:Roboto;-inkscape-font-specification:Roboto;fill:#af7fc7;fill-opacity:1;stroke:#ffffff;stroke-width:2.65;stroke-miterlimit:4;stroke-dasharray:none;stroke-opacity:1;paint-order:stroke fill markers"
       id="path925" />
    <path
       d="m 133.23728,145.72171 q -0.4341,-0.072 -0.9405,-0.072 -1.88102,0 -2.55282,1.60197 v 7.93752 h -1.91203 v -11.1828 h 1.86036 l 0.031,1.29191 q 0.9405,-1.49862 2.66651,-1.49862 0.5581,0 0.8475,0.1447 z"
       style="font-size:2.11667px;line-height:1.25;font-family:Roboto;-inkscape-font-specification:Roboto;fill:#af7fc7;fill-opacity:1;stroke:#ffffff;stroke-width:2.65;stroke-miterlimit:4;stroke-dasharray:none;stroke-opacity:1;paint-order:stroke fill markers"
       id="path927" />
    <path
       d="m 137.07167,155.18885 h -1.91203 v -11.1828 h 1.91203 z m -2.06706,-14.14903 q 0,-0.4651 0.2791,-0.7855 0.2894,-0.3204 0.8475,-0.3204 0.5581,0 0.8475,0.3204 0.2894,0.3204 0.2894,0.7855 0,0.4651 -0.2894,0.7752 -0.2894,0.3101 -0.8475,0.3101 -0.5581,0 -0.8475,-0.3101 -0.2791,-0.3101 -0.2791,-0.7752 z"
       style="font-size:2.11667px;line-height:1.25;font-family:Roboto;-inkscape-font-specification:Roboto;fill:#af7fc7;fill-opacity:1;stroke:#ffffff;stroke-width:2.65;stroke-miterlimit:4;stroke-dasharray:none;stroke-opacity:1;paint-order:stroke fill markers"
       id="path929" />
    <path
       d="m 147.0349,155.18885 q -0.1654,-0.3307 -0.2687,-1.17823 -1.33325,1.38493 -3.18327,1.38493 -1.65365,0 -2.71819,-0.9302 -1.0542,-0.9405 -1.0542,-2.37712 0,-1.74667 1.32292,-2.70785 1.33325,-0.9715 3.74138,-0.9715 h 1.86035 v -0.8785 q 0,-1.00253 -0.5994,-1.59164 -0.5995,-0.5995 -1.76734,-0.5995 -1.02319,0 -1.71566,0.5168 -0.6925,0.5168 -0.6925,1.25057 h -1.92236 q 0,-0.8372 0.5891,-1.61231 0.5994,-0.7855 1.61231,-1.24023 1.02319,-0.4548 2.24276,-0.4548 1.9327,0 3.02824,0.9715 1.09554,0.9612 1.13689,2.65617 v 5.14699 q 0,1.53996 0.3927,2.44946 v 0.1654 z m -3.17294,-1.45728 q 0.8992,0 1.70533,-0.4651 0.8062,-0.4651 1.16788,-1.20923 v -2.29444 h -1.49861 q -3.51401,0 -3.51401,2.05673 0,0.8992 0.5994,1.4056 0.5995,0.5064 1.53996,0.5064 z"
       style="font-size:2.11667px;line-height:1.25;font-family:Roboto;-inkscape-font-specification:Roboto;fill:#af7fc7;fill-opacity:1;stroke:#ffffff;stroke-width:2.65;stroke-miterlimit:4;stroke-dasharray:none;stroke-opacity:1;paint-order:stroke fill markers"
       id="path931" />
    <path
       d="m 153.72184,155.18885 h -1.91203 v -15.87503 h 1.91203 z"
       style="font-size:2.11667px;line-height:1.25;font-family:Roboto;-inkscape-font-specification:Roboto;fill:#af7fc7;fill-opacity:1;stroke:#ffffff;stroke-width:2.65;stroke-miterlimit:4;stroke-dasharray:none;stroke-opacity:1;paint-order:stroke fill markers"
       id="path933" />
    <path
       d="m 162.32081,155.18885 v -15.0482 h 4.24781 q 1.96371,0 3.47266,0.8682 1.50896,0.8682 2.32545,2.47014 0.8268,1.60197 0.8372,3.67937 v 0.9612 q 0,2.12907 -0.8268,3.73104 -0.8165,1.60198 -2.34611,2.45981 -1.51929,0.8578 -3.54501,0.8785 z m 1.98438,-13.41523 v 11.79258 h 2.08773 q 2.29444,0 3.56568,-1.42627 1.28158,-1.42627 1.28158,-4.06177 v -0.8785 q 0,-2.56316 -1.20923,-3.97909 -1.1989,-1.42628 -3.41065,-1.44695 z"
       style="font-size:2.11667px;line-height:1.25;font-family:Roboto;-inkscape-font-specification:Roboto;fill:#af7fc7;fill-opacity:1;stroke:#ffffff;stroke-width:2.65;stroke-miterlimit:4;stroke-dasharray:none;stroke-opacity:1;paint-order:stroke fill markers"
       id="path935" />
    <path
       d="m 180.54195,155.39555 q -2.27377,0 -3.70004,-1.48828 -1.42627,-1.49862 -1.42627,-3.99976 v -0.3514 q 0,-1.66399 0.6304,-2.96623 0.6408,-1.31259 1.77768,-2.04639 1.14721,-0.7442 2.48047,-0.7442 2.18075,0 3.38998,1.43661 1.20923,1.43661 1.20923,4.11345 v 0.7958 h -7.57578 q 0.041,1.65365 0.9612,2.67684 0.9302,1.01286 2.35645,1.01286 1.01286,0 1.71566,-0.4134 0.7028,-0.4134 1.2299,-1.09554 l 1.16789,0.9095 q -1.4056,2.16008 -4.2168,2.16008 z m -0.2377,-10.02524 q -1.15756,0 -1.94304,0.8475 -0.7855,0.8372 -0.9715,2.35645 h 5.60174 v -0.1447 q -0.083,-1.45728 -0.7855,-2.2531 -0.7028,-0.8061 -1.90169,-0.8061 z"
       style="font-size:2.11667px;line-height:1.25;font-family:Roboto;-inkscape-font-specification:Roboto;fill:#af7fc7;fill-opacity:1;stroke:#ffffff;stroke-width:2.65;stroke-miterlimit:4;stroke-dasharray:none;stroke-opacity:1;paint-order:stroke fill markers"
       id="path937" />
    <path
       d="m 193.62645,152.22261 q 0,-0.7751 -0.5891,-1.19889 -0.5788,-0.4341 -2.03606,-0.7441 -1.44694,-0.3101 -2.30477,-0.7441 -0.8475,-0.4341 -1.26091,-1.03353 -0.4031,-0.5995 -0.4031,-1.42628 0,-1.37459 1.15756,-2.32544 1.16789,-0.9508 2.97657,-0.9508 1.90169,0 3.07992,0.9819 1.18856,0.9818 1.18856,2.51148 h -1.92237 q 0,-0.7855 -0.6718,-1.35393 -0.6614,-0.5684 -1.67431,-0.5684 -1.04387,0 -1.63298,0.4547 -0.5891,0.4548 -0.5891,1.18856 0,0.6925 0.5478,1.04387 0.5478,0.3514 1.97404,0.6718 1.43661,0.3204 2.32544,0.7648 0.8888,0.4444 1.31259,1.07487 0.4341,0.6201 0.4341,1.51929 0,1.49861 -1.1989,2.40812 -1.19889,0.8992 -3.11092,0.8992 -1.34359,0 -2.37712,-0.4754 -1.03353,-0.4754 -1.62264,-1.32292 -0.5788,-0.8578 -0.5788,-1.85002 h 1.91203 q 0.052,0.9612 0.7648,1.52963 0.7235,0.5581 1.9017,0.5581 1.0852,0 1.73633,-0.4341 0.6615,-0.4444 0.6615,-1.17823 z"
       style="font-size:2.11667px;line-height:1.25;font-family:Roboto;-inkscape-font-specification:Roboto;fill:#af7fc7;fill-opacity:1;stroke:#ffffff;stroke-width:2.65;stroke-miterlimit:4;stroke-dasharray:none;stroke-opacity:1;paint-order:stroke fill markers"
       id="path939" />
    <path
       d="m 200.10668,155.18885 h -1.91203 v -11.1828 h 1.91203 z m -2.06706,-14.14903 q 0,-0.4651 0.2791,-0.7855 0.2894,-0.3204 0.8475,-0.3204 0.5581,0 0.8475,0.3204 0.2894,0.3204 0.2894,0.7855 0,0.4651 -0.2894,0.7752 -0.2894,0.3101 -0.8475,0.3101 -0.5581,0 -0.8475,-0.3101 -0.2791,-0.3101 -0.2791,-0.7752 z"
       style="font-size:2.11667px;line-height:1.25;font-family:Roboto;-inkscape-font-specification:Roboto;fill:#af7fc7;fill-opacity:1;stroke:#ffffff;stroke-width:2.65;stroke-miterlimit:4;stroke-dasharray:none;stroke-opacity:1;paint-order:stroke fill markers"
       id="path941" />
    <path
       d="m 202.71117,149.50443 q 0,-2.61483 1.20923,-4.15479 1.20923,-1.5503 3.20395,-1.5503 2.04639,0 3.19361,1.44695 l 0.093,-1.24024 h 1.74667 v 10.91408 q 0,2.17041 -1.29191,3.42098 -1.28158,1.25058 -3.45199,1.25058 -1.20923,0 -2.36679,-0.5168 -1.15755,-0.5168 -1.76733,-1.41594 l 0.9922,-1.14721 q 1.22991,1.51928 3.00758,1.51928 1.39526,0 2.17041,-0.7855 0.7855,-0.7855 0.7855,-2.21175 v -0.9612 q -1.14721,1.32292 -3.13159,1.32292 -1.96371,0 -3.18328,-1.5813 -1.20923,-1.5813 -1.20923,-4.30982 z m 1.92237,0.217 q 0,1.89136 0.7751,2.97657 0.7752,1.07487 2.17041,1.07487 1.80868,0 2.65617,-1.64331 v -5.10564 q -0.8785,-1.60197 -2.6355,-1.60197 -1.39526,0 -2.18075,1.0852 -0.7855,1.08521 -0.7855,3.21428 z"
       style="font-size:2.11667px;line-height:1.25;font-family:Roboto;-inkscape-font-specification:Roboto;fill:#af7fc7;fill-opacity:1;stroke:#ffffff;stroke-width:2.65;stroke-miterlimit:4;stroke-dasharray:none;stroke-opacity:1;paint-order:stroke fill markers"
       id="path943" />
    <path
       d="m 216.84987,144.00605 0.062,1.4056 q 1.28158,-1.61231 3.34864,-1.61231 3.54501,0 3.57602,3.99977 v 7.38974 h -1.91203 v -7.40008 q -0.01,-1.20923 -0.5581,-1.78801 -0.5374,-0.5788 -1.68465,-0.5788 -0.9302,0 -1.63298,0.4961 -0.7028,0.4961 -1.09554,1.30225 v 7.96852 h -1.91204 v -11.1828 z"
       style="font-size:2.11667px;line-height:1.25;font-family:Roboto;-inkscape-font-specification:Roboto;fill:#af7fc7;fill-opacity:1;stroke:#ffffff;stroke-width:2.65;stroke-miterlimit:4;stroke-dasharray:none;stroke-opacity:1;paint-order:stroke fill markers"
       id="path945" />
    <path
       d="m 234.03748,155.18885 h -1.91203 v -11.1828 h 1.91203 z m -2.06706,-14.14903 q 0,-0.4651 0.279,-0.7855 0.2894,-0.3204 0.8475,-0.3204 0.5581,0 0.8475,0.3204 0.2894,0.3204 0.2894,0.7855 0,0.4651 -0.2894,0.7752 -0.2894,0.3101 -0.8475,0.3101 -0.5581,0 -0.8475,-0.3101 -0.279,-0.3101 -0.279,-0.7752 z"
       style="font-size:2.11667px;line-height:1.25;font-family:Roboto;-inkscape-font-specification:Roboto;fill:#af7fc7;fill-opacity:1;stroke:#ffffff;stroke-width:2.65;stroke-miterlimit:4;stroke-dasharray:none;stroke-opacity:1;paint-order:stroke fill markers"
       id="path947" />
    <path
       d="m 238.9054,144.00605 0.062,1.4056 q 1.28158,-1.61231 3.34864,-1.61231 3.54501,0 3.57602,3.99977 v 7.38974 h -1.91203 v -7.40008 q -0.01,-1.20923 -0.5581,-1.78801 -0.5374,-0.5788 -1.68465,-0.5788 -0.9302,0 -1.63298,0.4961 -0.7028,0.4961 -1.09554,1.30225 v 7.96852 h -1.91204 v -11.1828 z"
       style="font-size:2.11667px;line-height:1.25;font-family:Roboto;-inkscape-font-specification:Roboto;fill:#af7fc7;fill-opacity:1;stroke:#ffffff;stroke-width:2.65;stroke-miterlimit:4;stroke-dasharray:none;stroke-opacity:1;paint-order:stroke fill markers"
       id="path949" />
    <path
       d="m 310.82877,149.18404 q 0,2.30477 -0.6098,4.42351 -0.5994,2.1084 -1.85002,3.8964 -1.24023,1.78801 -2.60449,2.54249 l -0.4031,-1.16789 q 1.59164,-1.21957 2.55282,-3.78272 0.9715,-2.57349 0.9922,-5.70509 v -0.3307 q 0,-2.17041 -0.4547,-4.03077 -0.4548,-1.87069 -1.27125,-3.34863 -0.8062,-1.47795 -1.81901,-2.30478 l 0.4031,-1.16788 q 1.36426,0.7545 2.59416,2.52181 1.24023,1.76734 1.85002,3.89641 0.6201,2.12907 0.6201,4.55787 z"
       style="font-size:2.11667px;line-height:1.25;font-family:Roboto;-inkscape-font-specification:Roboto;fill:#af7fc7;fill-opacity:1;stroke:#ffffff;stroke-width:2.65;stroke-miterlimit:4;stroke-dasharray:none;stroke-opacity:1;paint-order:stroke fill markers"
       id="path951" />
    <path
       d="m 181.06396,119.52502 h -6.30453 l -1.41594,3.92742 h -2.04639 l 5.74643,-15.0482 h 1.73633 l 5.75676,15.0482 h -2.03605 z m -5.70509,-1.63297 h 5.11598 l -2.56316,-7.03834 z"
       style="font-size:2.11667px;line-height:1.25;font-family:Roboto;-inkscape-font-specification:Roboto;fill:#693685;fill-opacity:1;stroke:#fefeff;stroke-width:2;stroke-miterlimit:4;stroke-dasharray:none;stroke-opacity:1;paint-order:stroke fill markers;fill-rule:nonzero"
       id="path873-5" />
    <path
       d="m 189.43555,120.85828 2.76986,-8.58864 h 1.95338 l -4.0101,11.1828 h -1.45728 l -4.05144,-11.1828 h 1.95337 z"
       style="font-size:2.11667px;line-height:1.25;font-family:Roboto;-inkscape-font-specification:Roboto;fill:#693685;fill-opacity:1;stroke:#fefeff;stroke-width:2;stroke-miterlimit:4;stroke-dasharray:none;stroke-opacity:1;paint-order:stroke fill markers;fill-rule:nonzero"
       id="path875-8" />
    <path
       d="m 202.74742,123.45244 q -0.1654,-0.3307 -0.2687,-1.17822 -1.33326,1.38493 -3.18328,1.38493 -1.65365,0 -2.71818,-0.9302 -1.0542,-0.9405 -1.0542,-2.37712 0,-1.74667 1.32292,-2.70785 1.33325,-0.9715 3.74137,-0.9715 h 1.86036 v -0.8785 q 0,-1.00253 -0.5995,-1.59164 -0.5994,-0.5994 -1.76733,-0.5994 -1.0232,0 -1.71567,0.5168 -0.6925,0.5168 -0.6925,1.25056 h -1.92237 q 0,-0.83719 0.5891,-1.61229 0.5994,-0.7855 1.6123,-1.24024 1.0232,-0.4548 2.24276,-0.4548 1.9327,0 3.02825,0.9715 1.09554,0.9612 1.13688,2.65617 v 5.14698 q 0,1.53996 0.3927,2.44946 v 0.1654 z m -3.17293,-1.45728 q 0.8992,0 1.70532,-0.4651 0.8061,-0.4651 1.16789,-1.20923 v -2.29442 h -1.49862 q -3.514,0 -3.514,2.05672 0,0.8992 0.5995,1.4056 0.5994,0.5064 1.53996,0.5064 z"
       style="font-size:2.11667px;line-height:1.25;font-family:Roboto;-inkscape-font-specification:Roboto;fill:#693685;fill-opacity:1;stroke:#fefeff;stroke-width:2;stroke-miterlimit:4;stroke-dasharray:none;stroke-opacity:1;paint-order:stroke fill markers;fill-rule:nonzero"
       id="path877-0" />
    <path
       d="m 209.43436,123.45244 h -1.91203 v -15.87502 h 1.91203 z"
       style="font-size:2.11667px;line-height:1.25;font-family:Roboto;-inkscape-font-specification:Roboto;fill:#693685;fill-opacity:1;stroke:#fefeff;stroke-width:2;stroke-miterlimit:4;stroke-dasharray:none;stroke-opacity:1;paint-order:stroke fill markers;fill-rule:nonzero"
       id="path879-8" />
    <path
       d="m 211.98718,117.75769 q 0,-1.64331 0.6408,-2.95591 0.6511,-1.31257 1.79834,-2.02571 1.15756,-0.7131 2.63551,-0.7131 2.2841,0 3.6897,1.5813 1.41594,1.58129 1.41594,4.20647 v 0.1343 q 0,1.63298 -0.6305,2.93523 -0.6201,1.29191 -1.78801,2.01538 -1.15755,0.7235 -2.6665,0.7235 -2.27377,0 -3.68971,-1.58131 -1.4056,-1.5813 -1.4056,-4.18579 z m 1.92237,0.2274 q 0,1.86036 0.8578,2.98691 0.8682,1.12655 2.31511,1.12655 1.45727,0 2.3151,-1.13689 0.8578,-1.14722 0.8578,-3.20394 0,-1.83969 -0.8785,-2.97657 -0.8682,-1.14722 -2.3151,-1.14722 -1.41594,0 -2.28411,1.12655 -0.8682,1.12655 -0.8682,3.22461 z"
       style="font-size:2.11667px;line-height:1.25;font-family:Roboto;-inkscape-font-specification:Roboto;fill:#693685;fill-opacity:1;stroke:#fefeff;stroke-width:2;stroke-miterlimit:4;stroke-dasharray:none;stroke-opacity:1;paint-order:stroke fill markers;fill-rule:nonzero"
       id="path882-7" />
    <path
       d="m 226.37392,112.26964 0.062,1.4056 q 1.28157,-1.6123 3.34863,-1.6123 3.54501,0 3.57602,3.99976 v 7.38974 h -1.91203 v -7.40008 q -0.01,-1.20924 -0.5581,-1.788 -0.5374,-0.5788 -1.68465,-0.5788 -0.9302,0 -1.63298,0.4961 -0.7028,0.4961 -1.09554,1.30224 v 7.96853 h -1.91203 v -11.1828 z"
       style="font-size:2.11667px;line-height:1.25;font-family:Roboto;-inkscape-font-specification:Roboto;fill:#693685;fill-opacity:1;stroke:#fefeff;stroke-width:2;stroke-miterlimit:4;stroke-dasharray:none;stroke-opacity:1;paint-order:stroke fill markers;fill-rule:nonzero"
       id="path884-7" />
    <path
       d="m 238.32153,123.45244 h -1.91203 v -11.1828 h 1.91203 z m -2.06706,-14.14903 q 0,-0.4651 0.2791,-0.7855 0.2894,-0.3204 0.8475,-0.3204 0.5581,0 0.8475,0.3204 0.2894,0.3204 0.2894,0.7855 0,0.4651 -0.2894,0.7752 -0.2894,0.3101 -0.8475,0.3101 -0.5581,0 -0.8475,-0.3101 -0.2791,-0.3101 -0.2791,-0.7752 z"
       style="font-size:2.11667px;line-height:1.25;font-family:Roboto;-inkscape-font-specification:Roboto;fill:#693685;fill-opacity:1;stroke:#fefeff;stroke-width:2;stroke-miterlimit:4;stroke-dasharray:none;stroke-opacity:1;paint-order:stroke fill markers;fill-rule:nonzero"
       id="path886-4" />
    <path
       d="m 248.28477,123.45244 q -0.1654,-0.3307 -0.2687,-1.17822 -1.33326,1.38493 -3.18326,1.38493 -1.65366,0 -2.7182,-0.9302 -1.0542,-0.9405 -1.0542,-2.37712 0,-1.74667 1.32292,-2.70785 1.33325,-0.9715 3.74138,-0.9715 h 1.86035 v -0.8785 q 0,-1.00253 -0.5994,-1.59164 -0.5994,-0.5994 -1.76733,-0.5994 -1.0232,0 -1.71566,0.5168 -0.6925,0.5168 -0.6925,1.25056 h -1.92236 q 0,-0.83719 0.5891,-1.61229 0.5995,-0.7855 1.61231,-1.24024 1.02319,-0.4548 2.24276,-0.4548 1.9327,0 3.02824,0.9715 1.09554,0.9612 1.13688,2.65617 v 5.14698 q 0,1.53996 0.3927,2.44946 v 0.1654 z m -3.17294,-1.45728 q 0.8992,0 1.70532,-0.4651 0.8062,-0.4651 1.16789,-1.20923 v -2.29443 h -1.49862 q -3.514,0 -3.514,2.05672 0,0.8992 0.5995,1.4056 0.5994,0.5064 1.53996,0.5064 z"
       style="font-size:2.11667px;line-height:1.25;font-family:Roboto;-inkscape-font-specification:Roboto;fill:#693685;fill-opacity:1;stroke:#fefeff;stroke-width:2;stroke-miterlimit:4;stroke-dasharray:none;stroke-opacity:1;paint-order:stroke fill markers;fill-rule:nonzero"
       id="path888-8" />
    <path
       d="m 166.30514,122.44974 q 0,-0.4961 0.28941,-0.8268 0.29969,-0.3307 0.88879,-0.3307 0.5891,0 0.8888,0.3307 0.31011,0.3307 0.31011,0.8268 0,0.4754 -0.31011,0.7958 -0.2997,0.3204 -0.8888,0.3204 -0.5891,0 -0.88879,-0.3204 -0.28941,-0.3204 -0.28941,-0.7958 z"
       style="font-size:2.11667px;line-height:1.25;font-family:Roboto;-inkscape-font-specification:Roboto;fill:url(#linearGradient1275);fill-opacity:1;stroke:#fefeff;stroke-width:2;stroke-miterlimit:4;stroke-dasharray:none;stroke-opacity:1;paint-order:stroke fill markers;fill-rule:nonzero"
       id="path890-0" />
    <path
       d="m 90.940023,108.40406 4.9196,12.27834 4.919607,-12.27834 h 2.57349 v 15.0482 h -1.98438 v -5.86012 l 0.186,-6.3252 -4.940267,12.18532 h -1.51929 l -4.92994,-12.15432 0.1964,6.2942 v 5.86012 h -1.98438 v -15.0482 z"
       style="font-size:2.11667px;line-height:1.25;font-family:Roboto;-inkscape-font-specification:Roboto;fill:#a973c6;fill-opacity:1;stroke:#fefeff;stroke-width:2;stroke-miterlimit:4;stroke-dasharray:none;stroke-opacity:1;paint-order:stroke fill markers;fill-rule:nonzero"
       id="path892-7" />
    <path
       d="m 113.46064,123.45226 q -0.1654,-0.3307 -0.2687,-1.17822 -1.33325,1.38493 -3.18327,1.38493 -1.65365,0 -2.71819,-0.9302 -1.0542,-0.9405 -1.0542,-2.37712 0,-1.74667 1.32292,-2.70785 1.33326,-0.9715 3.74138,-0.9715 h 1.86036 v -0.8785 q 0,-1.00252 -0.5995,-1.59164 -0.5994,-0.5994 -1.76734,-0.5994 -1.02319,0 -1.71566,0.5168 -0.6925,0.5168 -0.6925,1.25057 h -1.92237 q 0,-0.8372 0.5891,-1.6123 0.5994,-0.7855 1.61231,-1.24024 1.02319,-0.4548 2.24276,-0.4548 1.9327,0 3.02824,0.9715 1.09555,0.9612 1.13689,2.65617 v 5.14698 q 0,1.53996 0.3927,2.44946 v 0.1654 z m -3.17294,-1.45728 q 0.8992,0 1.70533,-0.4651 0.8061,-0.4651 1.16789,-1.20923 v -2.29443 h -1.49862 q -3.51401,0 -3.51401,2.05672 0,0.8992 0.5994,1.4056 0.5995,0.5064 1.53996,0.5064 z"
       style="font-size:2.11667px;line-height:1.25;font-family:Roboto;-inkscape-font-specification:Roboto;fill:#a973c6;fill-opacity:1;stroke:#fefeff;stroke-width:2;stroke-miterlimit:4;stroke-dasharray:none;stroke-opacity:1;paint-order:stroke fill markers;fill-rule:nonzero"
       id="path894-6" />
    <path
       d="m 120.66435,109.56161 v 2.70785 h 2.08774 v 1.47795 h -2.08774 v 6.93499 q 0,0.6718 0.2791,1.01286 0.2791,0.3307 0.9509,0.3307 0.3307,0 0.9095,-0.124 v 1.5503 q -0.7545,0.2067 -1.46762,0.2067 -1.28157,0 -1.9327,-0.7752 -0.6511,-0.7752 -0.6511,-2.20142 v -6.93499 h -2.03606 v -1.47795 h 2.03606 v -2.70785 z"
       style="font-size:2.11667px;line-height:1.25;font-family:Roboto;-inkscape-font-specification:Roboto;fill:#a973c6;fill-opacity:1;stroke:#fefeff;stroke-width:2;stroke-miterlimit:4;stroke-dasharray:none;stroke-opacity:1;paint-order:stroke fill markers;fill-rule:nonzero"
       id="path896-0" />
    <path
       d="m 129.62505,123.65897 q -2.27377,0 -3.70004,-1.48829 -1.42627,-1.49862 -1.42627,-3.99976 v -0.3514 q 0,-1.66398 0.6304,-2.96623 0.6408,-1.31259 1.77767,-2.04639 1.14722,-0.7441 2.48048,-0.7441 2.18075,0 3.38998,1.4366 1.20924,1.43661 1.20924,4.11345 v 0.7958 h -7.57579 q 0.041,1.65365 0.9612,2.67685 0.9302,1.01286 2.35646,1.01286 1.01285,0 1.71565,-0.4134 0.7028,-0.4134 1.2299,-1.09554 l 1.16789,0.9095 q -1.4056,2.16008 -4.2168,2.16008 z m -0.2377,-10.02525 q -1.15756,0 -1.94304,0.8475 -0.7855,0.8372 -0.9715,2.35645 h 5.60173 v -0.1447 q -0.083,-1.45728 -0.7855,-2.25309 -0.7028,-0.8062 -1.90169,-0.8062 z"
       style="font-size:2.11667px;line-height:1.25;font-family:Roboto;-inkscape-font-specification:Roboto;fill:#a973c6;fill-opacity:1;stroke:#fefeff;stroke-width:2;stroke-miterlimit:4;stroke-dasharray:none;stroke-opacity:1;paint-order:stroke fill markers;fill-rule:nonzero"
       id="path898-4" />
    <path
       d="m 141.60367,113.98512 q -0.4341,-0.072 -0.9405,-0.072 -1.88103,0 -2.55282,1.60197 v 7.93751 h -1.91203 v -11.1828 h 1.86035 l 0.031,1.29192 q 0.94051,-1.49862 2.6665,-1.49862 0.5581,0 0.8475,0.1447 z"
       style="font-size:2.11667px;line-height:1.25;font-family:Roboto;-inkscape-font-specification:Roboto;fill:#a973c6;fill-opacity:1;stroke:#fefeff;stroke-width:2;stroke-miterlimit:4;stroke-dasharray:none;stroke-opacity:1;paint-order:stroke fill markers;fill-rule:nonzero"
       id="path900-8" />
    <path
       d="m 145.43806,123.45226 h -1.91203 v -11.1828 h 1.91203 z M 143.371,109.30323 q 0,-0.4651 0.2791,-0.7855 0.2894,-0.3204 0.8475,-0.3204 0.5581,0 0.8475,0.3204 0.2894,0.3204 0.2894,0.7855 0,0.4651 -0.2894,0.7752 -0.2894,0.3101 -0.8475,0.3101 -0.5581,0 -0.8475,-0.3101 -0.2791,-0.3101 -0.2791,-0.7752 z"
       style="font-size:2.11667px;line-height:1.25;font-family:Roboto;-inkscape-font-specification:Roboto;fill:#a973c6;fill-opacity:1;stroke:#fefeff;stroke-width:2;stroke-miterlimit:4;stroke-dasharray:none;stroke-opacity:1;paint-order:stroke fill markers;fill-rule:nonzero"
       id="path902-1" />
    <path
       d="m 155.4013,123.45226 q -0.16541,-0.3307 -0.2687,-1.17822 -1.33326,1.38493 -3.18328,1.38493 -1.65365,0 -2.71818,-0.9302 -1.05421,-0.9405 -1.05421,-2.37712 0,-1.74667 1.32292,-2.70785 1.33326,-0.9715 3.74138,-0.9715 h 1.86036 v -0.8785 q 0,-1.00252 -0.5994,-1.59164 -0.5994,-0.5994 -1.76734,-0.5994 -1.02319,0 -1.71566,0.5168 -0.6925,0.5168 -0.6925,1.25057 h -1.92237 q 0,-0.8372 0.5891,-1.6123 0.5995,-0.7855 1.61231,-1.24024 1.0232,-0.4548 2.24276,-0.4548 1.9327,0 3.02824,0.9715 1.09556,0.9612 1.13689,2.65617 v 5.14698 q 0,1.53996 0.3927,2.44946 v 0.1654 z m -3.17295,-1.45728 q 0.8992,0 1.70533,-0.4651 0.8062,-0.4651 1.1679,-1.20923 v -2.29443 h -1.49863 q -3.514,0 -3.514,2.05672 0,0.8992 0.5994,1.4056 0.5994,0.5064 1.53996,0.5064 z"
       style="font-size:2.11667px;line-height:1.25;font-family:Roboto;-inkscape-font-specification:Roboto;fill:#a973c6;fill-opacity:1;stroke:#fefeff;stroke-width:2;stroke-miterlimit:4;stroke-dasharray:none;stroke-opacity:1;paint-order:stroke fill markers;fill-rule:nonzero"
       id="path904-0" />
    <path
       d="m 162.08823,123.45226 h -1.91203 v -15.87502 h 1.91203 z"
       style="font-size:2.11667px;line-height:1.25;font-family:Roboto;-inkscape-font-specification:Roboto;fill:#a973c6;fill-opacity:1;stroke:#fefeff;stroke-width:2;stroke-miterlimit:4;stroke-dasharray:none;stroke-opacity:1;paint-order:stroke fill markers;fill-rule:nonzero"
       id="path906-1" />
  </g>
  <style
     type="text/css"
     id="style2">
	.st0{fill:#FFFFFF;}
	.st1{fill:none;stroke:url(#SVGID_1_);stroke-width:60;stroke-miterlimit:10;}
	.st2{fill:#8B44AC;}
	.st3{fill:#5D2F75;stroke:#FFFFFF;stroke-width:10;stroke-miterlimit:10;}
</style>
</svg>
