<?xml version="1.0" encoding="UTF-8" standalone="no"?>
<svg
   xmlns:dc="http://purl.org/dc/elements/1.1/"
   xmlns:cc="http://creativecommons.org/ns#"
   xmlns:rdf="http://www.w3.org/1999/02/22-rdf-syntax-ns#"
   xmlns:svg="http://www.w3.org/2000/svg"
   xmlns="http://www.w3.org/2000/svg"
   xmlns:xlink="http://www.w3.org/1999/xlink"
   xmlns:sodipodi="http://sodipodi.sourceforge.net/DTD/sodipodi-0.dtd"
   xmlns:inkscape="http://www.inkscape.org/namespaces/inkscape"
   width="1120"
   height="480"
   viewBox="0 0 296.33334 127"
   version="1.1"
   id="svg8"
   inkscape:version="1.0.1 (3bc2e813f5, 2020-09-07)"
   sodipodi:docname="SocialMediaPreview.svg"
   inkscape:export-filename="E:\Projects\Contributions\material.avalonia\SocialMediaPreview.png"
   inkscape:export-xdpi="96"
   inkscape:export-ydpi="96">
  <defs
     id="defs2">
    <linearGradient
       inkscape:collect="always"
       id="linearGradient896">
      <stop
         style="stop-color:#663481;stop-opacity:1"
         offset="0"
         id="stop892" />
      <stop
         style="stop-color:#8b44ac;stop-opacity:1"
         offset="1"
         id="stop894" />
    </linearGradient>
    <inkscape:perspective
       sodipodi:type="inkscape:persp3d"
       inkscape:vp_x="0 : 292.1 : 1"
       inkscape:vp_y="0 : 1000 : 0"
       inkscape:vp_z="16.792565 : 292.35057 : 1"
       inkscape:persp3d-origin="6.3500002 : 289.98333 : 1"
       id="perspective42" />
    <filter
       inkscape:collect="always"
       style="color-interpolation-filters:sRGB"
       id="filter1529"
       x="-0.046412673"
       width="1.0928253"
       y="-0.10218951"
       height="1.204379">
      <feGaussianBlur
         inkscape:collect="always"
         stdDeviation="0.14960497"
         id="feGaussianBlur1531" />
    </filter>
    <filter
       inkscape:collect="always"
       style="color-interpolation-filters:sRGB"
       id="filter1529-8"
       x="-0.046412673"
       width="1.0928253"
       y="-0.10218951"
       height="1.204379">
      <feGaussianBlur
         inkscape:collect="always"
         stdDeviation="0.14960497"
         id="feGaussianBlur1531-7" />
    </filter>
    <filter
       inkscape:collect="always"
       style="color-interpolation-filters:sRGB"
       id="filter1529-8-0"
       x="-0.046412673"
       width="1.0928253"
       y="-0.10218951"
       height="1.204379">
      <feGaussianBlur
         inkscape:collect="always"
         stdDeviation="0.14960497"
         id="feGaussianBlur1531-7-2" />
    </filter>
    <filter
       inkscape:collect="always"
       style="color-interpolation-filters:sRGB"
       id="filter1529-8-0-9"
       x="-0.046412673"
       width="1.0928253"
       y="-0.10218951"
       height="1.204379">
      <feGaussianBlur
         inkscape:collect="always"
         stdDeviation="0.14960497"
         id="feGaussianBlur1531-7-2-8" />
    </filter>
    <linearGradient
       inkscape:collect="always"
       xlink:href="#linearGradient896"
       id="linearGradient898-0"
       x1="112.09926"
       y1="556.44598"
       x2="442.89478"
       y2="285.79514"
       gradientUnits="userSpaceOnUse"
       gradientTransform="matrix(0.00445478,0,0,0.00445478,26.037369,14.067162)" />
    <linearGradient
       inkscape:collect="always"
       xlink:href="#linearGradient896"
       id="linearGradient1043"
       gradientUnits="userSpaceOnUse"
       gradientTransform="matrix(0.1008994,0.04352024,-0.09827649,0.04373235,636.77019,113.93147)"
       x1="112.09926"
       y1="556.44598"
       x2="442.89478"
       y2="285.79514" />
    <linearGradient
       inkscape:collect="always"
       xlink:href="#linearGradient896"
       id="linearGradient1275"
       x1="168.58513"
       y1="122.44372"
       x2="166.48705"
       y2="121.78828"
       gradientUnits="userSpaceOnUse"
       gradientTransform="translate(14.038494,-65.533666)" />
  </defs>
  <sodipodi:namedview
     id="base"
     pagecolor="#303030"
     bordercolor="#666666"
     borderopacity="1"
     inkscape:pageopacity="1"
     inkscape:pageshadow="2"
     inkscape:zoom="1"
     inkscape:cx="527.89817"
     inkscape:cy="255.90146"
     inkscape:document-units="mm"
     inkscape:current-layer="layer1"
     inkscape:document-rotation="0"
     showgrid="true"
     units="px"
     inkscape:window-width="1920"
     inkscape:window-height="1017"
     inkscape:window-x="760"
     inkscape:window-y="32"
     inkscape:window-maximized="1"
     width="128px"
     inkscape:snap-path-mask="true"
     inkscape:snap-path-clip="true" />
  <metadata
     id="metadata5">
    <rdf:RDF>
      <cc:Work
         rdf:about="">
        <dc:format>image/svg+xml</dc:format>
        <dc:type
           rdf:resource="http://purl.org/dc/dcmitype/StillImage" />
        <dc:title></dc:title>
      </cc:Work>
    </rdf:RDF>
  </metadata>
  <g
     inkscape:label="Слой 1"
     inkscape:groupmode="layer"
     id="layer1">
    <g
       id="g916"
       transform="matrix(0.82187501,0,0,0.82187501,2.8499998,10.975934)">
      <rect
         style="fill:#000000;fill-opacity:0.200803;fill-rule:evenodd;stroke-width:0.275241;filter:url(#filter1529-8-0-9)"
         id="rect58-1-1-2-1-2"
         width="3.199091"
         height="3.199091"
         x="-4.1320586"
         y="6.7448502"
         ry="0"
         transform="matrix(11.516892,-5.2307688,11.516892,5.2307688,-8.5867686,27.093459)" />
      <rect
         style="fill:#8b44ac;fill-opacity:1;fill-rule:evenodd;stroke-width:3.48155"
         id="rect58-0-0-9-7"
         width="40.465622"
         height="40.465622"
         x="-85.694542"
         y="109.31312"
         ry="3.6434028"
         transform="matrix(0.91049097,-0.41352895,0.91049097,0.41352895,0,0)" />
      <rect
         style="fill:#000000;fill-opacity:0.200803;fill-rule:evenodd;stroke-width:0.275241;filter:url(#filter1529-8-0)"
         id="rect58-1-1-2-1"
         width="3.199091"
         height="3.199091"
         x="-4.1320586"
         y="6.7448502"
         ry="0"
         transform="matrix(11.516892,-5.2307688,11.516892,5.2307688,-8.6161986,13.706495)" />
      <rect
         style="fill:#ffdc00;fill-opacity:1;fill-rule:evenodd;stroke-width:3.48155"
         id="rect58-0-0-4"
         width="40.465622"
         height="40.465622"
         x="-69.508301"
         y="93.126862"
         ry="3.6434147"
         transform="matrix(0.91049097,-0.41352895,0.91049097,0.41352895,0,0)" />
      <rect
         style="fill:#000000;fill-opacity:0.200803;fill-rule:evenodd;stroke-width:0.275241;filter:url(#filter1529-8)"
         id="rect58-1-1-2"
         width="3.199091"
         height="3.199091"
         x="-4.1320586"
         y="6.7448502"
         ry="0"
         transform="matrix(11.516892,-5.2307688,11.516892,5.2307688,-8.6161986,0.31952987)" />
      <rect
         style="fill:#ff86ff;fill-opacity:1;fill-rule:evenodd;stroke-width:3.48155"
         id="rect58-0-9"
         width="40.465622"
         height="40.465622"
         x="-53.338223"
         y="76.924438"
         ry="3.6757557"
         transform="matrix(0.91049097,-0.41352895,0.91049097,0.41352895,0,0)" />
      <rect
         style="fill:#000000;fill-opacity:0.200803;fill-rule:evenodd;stroke-width:0.275241;filter:url(#filter1529)"
         id="rect58-1-1"
         width="3.199091"
         height="3.199091"
         x="-4.1320586"
         y="6.7448502"
         ry="0"
         transform="matrix(11.516891,-5.2307689,11.516891,5.2307689,-8.6161986,-13.067434)" />
      <rect
         style="fill:#00aeff;fill-opacity:1;fill-rule:evenodd;stroke-width:3.48155"
         id="rect58-1"
         width="40.465622"
         height="40.465622"
         x="-37.135807"
         y="60.754356"
         ry="3.6434269"
         transform="matrix(0.91049097,-0.41352895,0.91049097,0.41352895,0,0)" />
      <g
         id="g1392"
         transform="translate(-110.99998,1.3229167)">
        <path
           id="circle4-6-4"
           style="fill:url(#linearGradient1043);fill-opacity:1;stroke-width:0.180261"
           d="m 639.2207,122.78906 a 47.719967,20.901067 0.33344137 0 0 -23.64062,2.84375 c 3.88699,2.10441 3.69527,5.2133 -0.73242,7.1836 -4.42756,1.97037 -11.52131,2.1033 -16.38477,0.43359 a 47.719967,20.901067 0.33344137 0 0 8.29883,25.25586 47.719967,20.901067 0.33344137 0 0 67.47656,-0.0723 47.719967,20.901067 0.33344137 0 0 -0.88867,-29.56054 47.719967,20.901067 0.33344137 0 0 -34.12891,-6.08399 z m -27.02148,3.80078 a 47.719967,20.901067 0.33344137 0 0 -6.32617,2.35547 47.719967,20.901067 0.33344137 0 0 -5.26953,2.80274 c 3.35885,1.28333 8.33593,1.23216 11.42968,-0.14453 3.09467,-1.37712 3.15059,-3.56256 0.16602,-5.01368 z m 27.35937,7.47852 a 21.963584,9.6199219 0.33344137 0 1 15.82227,2.80273 v -0.002 a 21.963584,9.6199219 0.33344137 0 1 0.4082,13.60742 21.963584,9.6199219 0.33344137 0 1 -31.05859,0.0332 21.963584,9.6199219 0.33344137 0 1 -0.41016,-13.60743 21.963584,9.6199219 0.33344137 0 1 15.23828,-2.83398 z"
           transform="scale(0.26458333)" />
        <path
           id="path1347"
           style="color:#000000;font-style:normal;font-variant:normal;font-weight:normal;font-stretch:normal;font-size:medium;line-height:normal;font-family:sans-serif;font-variant-ligatures:normal;font-variant-position:normal;font-variant-caps:normal;font-variant-numeric:normal;font-variant-alternates:normal;font-variant-east-asian:normal;font-feature-settings:normal;font-variation-settings:normal;text-indent:0;text-align:start;text-decoration:none;text-decoration-line:none;text-decoration-style:solid;text-decoration-color:#000000;letter-spacing:normal;word-spacing:normal;text-transform:none;writing-mode:lr-tb;direction:ltr;text-orientation:mixed;dominant-baseline:auto;baseline-shift:baseline;text-anchor:start;white-space:normal;shape-padding:0;shape-margin:0;inline-size:0;clip-rule:nonzero;display:inline;overflow:visible;visibility:visible;isolation:auto;mix-blend-mode:normal;color-interpolation:sRGB;color-interpolation-filters:linearRGB;solid-color:#000000;solid-opacity:1;vector-effect:none;fill:#5d2f75;fill-opacity:1;fill-rule:nonzero;stroke:none;stroke-width:2.62449;stroke-linecap:butt;stroke-linejoin:miter;stroke-miterlimit:10;stroke-dasharray:none;stroke-dashoffset:0;stroke-opacity:1;color-rendering:auto;image-rendering:auto;shape-rendering:auto;text-rendering:auto;enable-background:accumulate;stop-color:#000000"
           d="m 605.87891,125.3418 c -2.13549,0.002 -4.25506,0.36248 -5.86329,1.07812 -3.21652,1.43129 -3.17169,3.73808 0.17969,5.1836 3.35135,1.44552 8.62144,1.43129 11.83789,0 3.21642,-1.43129 3.15994,-3.73808 -0.1914,-5.1836 -1.67569,-0.72276 -3.8274,-1.07982 -5.96289,-1.07812 z"
           transform="scale(0.26458333)" />
        <path
           id="rect19-7"
           style="fill:#8b44ac;stroke-width:0.0746834"
           d="m 173.62262,39.765231 -8.92217,3.970304 4.84985,2.091852 8.92217,-3.970304 z" />
      </g>
    </g>
    <g
       id="g901"
       transform="matrix(4.2043192,0,0,4.2043192,116.41609,-0.8454002)">
      <circle
         style="fill:#f5eef7;fill-opacity:1;stroke:none;stroke-width:0.287951;stroke-linecap:square;stroke-miterlimit:4;stroke-dasharray:none;stroke-opacity:1;paint-order:stroke fill markers"
         id="path881"
         cx="27.610304"
         cy="15.533154"
         r="2.3" />
      <rect
         style="fill:#f5eef7;fill-opacity:1;stroke:none;stroke-width:0.333328;stroke-linecap:square;stroke-miterlimit:4;stroke-dasharray:none;stroke-opacity:1;paint-order:stroke fill markers"
         id="rect893"
         width="3.0933816"
         height="3.2224536"
         x="26.816923"
         y="14.610701"
         ry="1.0629624" />
      <path
         id="circle4-6"
         style="fill:url(#linearGradient898-0);fill-opacity:1;stroke-width:0.00861446"
         d="m 27.610303,14.023948 a 1.5092502,1.5092502 0 0 0 -1.509206,1.509207 1.5092502,1.5092502 0 0 0 1.509206,1.509206 1.5092502,1.5092502 0 0 0 1.509207,-1.509206 1.5092502,1.5092502 0 0 0 -1.509207,-1.509207 z m 0,0.814521 a 0.69464725,0.69464725 0 0 1 0.694686,0.694686 0.69464725,0.69464725 0 0 1 -0.694686,0.694685 0.69464725,0.69464725 0 0 1 -0.694685,-0.694685 0.69464725,0.69464725 0 0 1 0.694685,-0.694686 z" />
      <g
         id="g891">
        <circle
           style="fill:#5d2f75;stroke:#ffffff;stroke-width:0.125421;stroke-miterlimit:10"
           id="circle21"
           r="0.3273499"
           cy="15.533231"
           cx="26.107803"
           class="st3" />
        <path
           id="rect19"
           style="fill:#8b44ac;stroke-width:0.0134893"
           d="m 28.30525,15.514316 v 1.528569 h 0.809289 v -1.528569 z" />
      </g>
    </g>
    <path
       d="m 99.656593,64.436067 q 0,-1.248655 0.331502,-2.397858 0.337025,-1.149203 1.000025,-2.088456 0.66301,-0.939253 1.37573,-1.326004 l 0.20995,0.674049 q -0.80665,0.618806 -1.326,1.889561 -0.51382,1.27075 -0.56355,2.845386 l -0.006,0.469626 q 0,2.132655 0.77903,3.701763 0.46962,0.939253 1.11605,1.469656 l -0.20995,0.624328 q -0.73482,-0.408845 -1.40335,-1.370208 -1.303906,-1.878506 -1.303906,-4.491843 z"
       style="font-size:2.11667px;line-height:1.25;font-family:Roboto;-inkscape-font-specification:Roboto;fill:#693685;fill-opacity:1;stroke:#ffffff;stroke-width:1.41663;stroke-miterlimit:4;stroke-dasharray:none;stroke-opacity:1;paint-order:stroke fill markers"
       id="path909" />
    <path
       d="m 107.2535,67.701359 q -0.0884,-0.176785 -0.14365,-0.629856 -0.71273,0.740353 -1.70171,0.740353 -0.884,0 -1.45308,-0.497264 -0.56355,-0.502771 -0.56355,-1.270755 0,-0.933731 0.7072,-1.447557 0.71272,-0.519342 2.00006,-0.519342 h 0.9945 v -0.469626 q 0,-0.53593 -0.32045,-0.850855 -0.32046,-0.32048 -0.94478,-0.32048 -0.54698,0 -0.91715,0.27627 -0.37018,0.27627 -0.37018,0.668527 h -1.02765 q 0,-0.447549 0.31492,-0.861905 0.32046,-0.419911 0.86191,-0.662999 0.54697,-0.243126 1.19893,-0.243126 1.03318,0 1.61883,0.519342 0.58565,0.513836 0.60775,1.419929 v 2.751466 q 0,0.823228 0.20995,1.309426 v 0.08842 z m -1.69619,-0.77903 q 0.48068,0 0.91164,-0.248632 0.43095,-0.248632 0.62432,-0.646427 v -1.226551 h -0.80113 q -1.87851,0 -1.87851,1.099482 0,0.480692 0.32046,0.751402 0.32045,0.27071 0.82322,0.27071 z"
       style="font-size:2.11667px;line-height:1.25;font-family:Roboto;-inkscape-font-specification:Roboto;fill:#693685;fill-opacity:1;stroke:#ffffff;stroke-width:1.41663;stroke-miterlimit:4;stroke-dasharray:none;stroke-opacity:1;paint-order:stroke fill markers"
       id="path911" />
    <path
       d="m 111.38622,64.933321 -0.64091,0.668527 v 2.099511 h -1.02213 v -8.486437 h 1.02213 v 5.132748 l 0.54698,-0.657477 1.86193,-1.966909 h 1.24313 l -2.32604,2.497311 2.59677,3.480764 h -1.19893 z"
       style="font-size:2.11667px;line-height:1.25;font-family:Roboto;-inkscape-font-specification:Roboto;fill:#693685;fill-opacity:1;stroke:#ffffff;stroke-width:1.41663;stroke-miterlimit:4;stroke-dasharray:none;stroke-opacity:1;paint-order:stroke fill markers"
       id="path913" />
    <path
       d="m 119.14334,67.701359 q -0.0884,-0.176785 -0.14365,-0.629856 -0.71273,0.740353 -1.70171,0.740353 -0.884,0 -1.45308,-0.497264 -0.56355,-0.502771 -0.56355,-1.270755 0,-0.933731 0.70721,-1.447557 0.71272,-0.519342 2.00005,-0.519342 h 0.99451 v -0.469626 q 0,-0.53593 -0.32046,-0.850855 -0.32045,-0.32048 -0.94477,-0.32048 -0.54698,0 -0.91716,0.27627 -0.37018,0.27627 -0.37018,0.668527 h -1.02765 q 0,-0.447549 0.31493,-0.861905 0.32045,-0.419911 0.8619,-0.662999 0.54698,-0.243126 1.19893,-0.243126 1.03318,0 1.61883,0.519342 0.58566,0.513836 0.60776,1.419929 v 2.751466 q 0,0.823228 0.20995,1.309426 v 0.08842 z m -1.69618,-0.77903 q 0.48068,0 0.91163,-0.248632 0.43095,-0.248632 0.62433,-0.646427 v -1.226551 h -0.80113 q -1.87851,0 -1.87851,1.099482 0,0.480692 0.32045,0.751402 0.32046,0.27071 0.82323,0.27071 z"
       style="font-size:2.11667px;line-height:1.25;font-family:Roboto;-inkscape-font-specification:Roboto;fill:#693685;fill-opacity:1;stroke:#ffffff;stroke-width:1.41663;stroke-miterlimit:4;stroke-dasharray:none;stroke-opacity:1;paint-order:stroke fill markers"
       id="path915" />
    <path
       d="m 121.6296,67.165429 q 0,-0.265204 0.15471,-0.441989 0.16022,-0.176785 0.47515,-0.176785 0.31492,0 0.47515,0.176785 0.16575,0.176785 0.16575,0.441989 0,0.254138 -0.16575,0.425416 -0.16022,0.171279 -0.47515,0.171279 -0.31493,0 -0.47515,-0.171279 -0.15471,-0.171278 -0.15471,-0.425416 z"
       style="font-size:2.11667px;line-height:1.25;font-family:Roboto;-inkscape-font-specification:Roboto;fill:#693685;fill-opacity:1;stroke:#ffffff;stroke-width:1.41663;stroke-miterlimit:4;stroke-dasharray:none;stroke-opacity:1;paint-order:stroke fill markers"
       id="path917" />
    <path
       d="m 128.91711,59.656927 2.62991,6.563726 2.62991,-6.563726 h 1.37573 v 8.044432 h -1.06081 v -3.13269 l 0.0995,-3.38131 -2.64096,6.514 h -0.81218 l -2.63544,-6.497428 0.10497,3.364738 v 3.13269 h -1.0608 v -8.044432 z"
       style="font-size:2.11667px;line-height:1.25;font-family:Roboto;-inkscape-font-specification:Roboto;fill:#693685;fill-opacity:1;stroke:#ffffff;stroke-width:1.41663;stroke-miterlimit:4;stroke-dasharray:none;stroke-opacity:1;paint-order:stroke fill markers"
       id="path919" />
    <path
       d="m 140.95613,67.701359 q -0.0884,-0.176785 -0.14364,-0.629856 -0.71273,0.740353 -1.70171,0.740353 -0.884,0 -1.45308,-0.497264 -0.56355,-0.502771 -0.56355,-1.270755 0,-0.933731 0.7072,-1.447557 0.71273,-0.519342 2.00006,-0.519342 h 0.9945 v -0.469626 q 0,-0.53593 -0.32042,-0.850855 -0.32048,-0.32048 -0.94478,-0.32048 -0.54698,0 -0.91716,0.27627 -0.37019,0.27627 -0.37019,0.668527 h -1.02767 q 0,-0.447549 0.31493,-0.861905 0.32045,-0.419911 0.8619,-0.662999 0.54697,-0.243126 1.19893,-0.243126 1.03318,0 1.61883,0.519342 0.58565,0.513836 0.60775,1.419929 v 2.751466 q 0,0.823228 0.20993,1.309426 v 0.08842 z m -1.69618,-0.77903 q 0.48069,0 0.91162,-0.248632 0.43098,-0.248632 0.62433,-0.646427 v -1.226556 h -0.80113 q -1.8785,0 -1.8785,1.099482 0,0.480692 0.32045,0.751402 0.32042,0.27071 0.82323,0.27071 z"
       style="font-size:2.11667px;line-height:1.25;font-family:Roboto;-inkscape-font-specification:Roboto;fill:#693685;fill-opacity:1;stroke:#ffffff;stroke-width:1.417;stroke-miterlimit:4;stroke-dasharray:none;stroke-opacity:1;paint-order:stroke fill markers"
       id="path921" />
    <path
       d="m 144.80707,60.275728 v 1.447556 h 1.11606 v 0.790079 h -1.11606 v 3.70729 q 0,0.35913 0.1492,0.541453 0.1492,0.176785 0.50833,0.176785 0.17678,0 0.4862,-0.06629 v 0.828756 q -0.40334,0.110497 -0.78456,0.110497 -0.6851,0 -1.03317,-0.414405 -0.34807,-0.414351 -0.34807,-1.176824 v -3.707264 h -1.08842 v -0.790079 h 1.08842 v -1.447556 z"
       style="font-size:2.11667px;line-height:1.25;font-family:Roboto;-inkscape-font-specification:Roboto;fill:#693685;fill-opacity:1;stroke:#ffffff;stroke-width:1.41663;stroke-miterlimit:4;stroke-dasharray:none;stroke-opacity:1;paint-order:stroke fill markers"
       id="path923" />
    <path
       d="m 149.59726,67.811856 q -1.2155,0 -1.97796,-0.795601 -0.76245,-0.801129 -0.76245,-2.138183 v -0.18785 q 0,-0.889532 0.33705,-1.585681 0.34256,-0.701681 0.95031,-1.093954 0.61327,-0.397833 1.326,-0.397833 1.16578,0 1.81221,0.76798 0.64642,0.76798 0.64642,2.198958 v 0.425417 h -4.04986 q 0.0219,0.884005 0.51384,1.430979 0.49726,0.541453 1.2597,0.541453 0.54145,0 0.91716,-0.220995 0.3757,-0.220994 0.65747,-0.585651 l 0.62433,0.486198 q -0.7514,1.154731 -2.25421,1.154731 z m -0.12707,-5.359269 q -0.6188,0 -1.0387,0.453054 -0.41991,0.447549 -0.51934,1.259706 h 2.99456 v -0.07735 q -0.0444,-0.779029 -0.41991,-1.204457 -0.3757,-0.430923 -1.01661,-0.430923 z"
       style="font-size:2.11667px;line-height:1.25;font-family:Roboto;-inkscape-font-specification:Roboto;fill:#693685;fill-opacity:1;stroke:#ffffff;stroke-width:1.41663;stroke-miterlimit:4;stroke-dasharray:none;stroke-opacity:1;paint-order:stroke fill markers"
       id="path925" />
    <path
       d="m 156.00076,62.640437 q -0.23206,-0.03849 -0.50277,-0.03849 -1.00555,0 -1.36468,0.856377 v 4.243221 h -1.02212 v -5.978074 h 0.9945 l 0.0166,0.690626 q 0.50277,-0.801129 1.42546,-0.801129 0.29835,0 0.45306,0.07735 z"
       style="font-size:2.11667px;line-height:1.25;font-family:Roboto;-inkscape-font-specification:Roboto;fill:#693685;fill-opacity:1;stroke:#ffffff;stroke-width:1.41663;stroke-miterlimit:4;stroke-dasharray:none;stroke-opacity:1;paint-order:stroke fill markers"
       id="path927" />
    <path
       d="m 158.05054,67.701359 h -1.02212 v -5.978075 h 1.02212 z m -1.105,-7.563756 q 0,-0.248632 0.1492,-0.41991 0.15471,-0.171279 0.45306,-0.171279 0.29834,0 0.45305,0.171279 0.15471,0.171278 0.15471,0.41991 0,0.248632 -0.15471,0.414405 -0.15471,0.165772 -0.45305,0.165772 -0.29835,0 -0.45306,-0.165772 -0.1492,-0.165773 -0.1492,-0.414405 z"
       style="font-size:2.11667px;line-height:1.25;font-family:Roboto;-inkscape-font-specification:Roboto;fill:#693685;fill-opacity:1;stroke:#ffffff;stroke-width:1.41663;stroke-miterlimit:4;stroke-dasharray:none;stroke-opacity:1;paint-order:stroke fill markers"
       id="path929" />
    <path
       d="m 163.37666,67.701359 q -0.0884,-0.176785 -0.14364,-0.629856 -0.71272,0.740353 -1.7017,0.740353 -0.88401,0 -1.45309,-0.497264 -0.56355,-0.502771 -0.56355,-1.270755 0,-0.933731 0.70721,-1.447557 0.71272,-0.519342 2.00005,-0.519342 h 0.99451 v -0.469626 q 0,-0.53593 -0.32043,-0.850855 -0.32048,-0.32048 -0.94478,-0.32048 -0.54697,0 -0.91715,0.27627 -0.3702,0.27627 -0.3702,0.668527 h -1.02765 q 0,-0.447549 0.31492,-0.861905 0.32043,-0.419911 0.86191,-0.662999 0.54697,-0.243126 1.19892,-0.243126 1.03318,0 1.61883,0.519342 0.58566,0.513836 0.60776,1.419929 v 2.751466 q 0,0.823228 0.20993,1.309426 v 0.08842 z m -1.69618,-0.77903 q 0.48069,0 0.91163,-0.248632 0.43098,-0.248632 0.62433,-0.646427 v -1.226556 h -0.80113 q -1.87851,0 -1.87851,1.099482 0,0.480692 0.32043,0.751402 0.32048,0.27071 0.82322,0.27071 z"
       style="font-size:2.11667px;line-height:1.25;font-family:Roboto;-inkscape-font-specification:Roboto;fill:#693685;fill-opacity:1;stroke:#ffffff;stroke-width:1.41663;stroke-miterlimit:4;stroke-dasharray:none;stroke-opacity:1;paint-order:stroke fill markers"
       id="path931" />
    <path
       d="m 166.95135,67.701359 h -1.02213 v -8.486437 h 1.02213 z"
       style="font-size:2.11667px;line-height:1.25;font-family:Roboto;-inkscape-font-specification:Roboto;fill:#693685;fill-opacity:1;stroke:#ffffff;stroke-width:1.41663;stroke-miterlimit:4;stroke-dasharray:none;stroke-opacity:1;paint-order:stroke fill markers"
       id="path933" />
    <path
       d="m 171.54817,67.701359 v -8.044432 h 2.27078 q 1.04976,0 1.85641,0.46412 0.80666,0.464121 1.24313,1.320482 0.44199,0.856378 0.44755,1.966909 v 0.513836 q 0,1.138153 -0.44199,1.994531 -0.43648,0.856383 -1.25417,1.314959 -0.81218,0.458561 -1.89509,0.469627 z m 1.06081,-7.171483 v 6.30405 h 1.11605 q 1.22656,0 1.90613,-0.762452 0.68511,-0.762452 0.68511,-2.171331 v -0.469627 q 0,-1.370208 -0.64643,-2.127132 -0.64091,-0.762458 -1.82326,-0.773508 z"
       style="font-size:2.11667px;line-height:1.25;font-family:Roboto;-inkscape-font-specification:Roboto;fill:#693685;fill-opacity:1;stroke:#ffffff;stroke-width:1.41663;stroke-miterlimit:4;stroke-dasharray:none;stroke-opacity:1;paint-order:stroke fill markers"
       id="path935" />
    <path
       d="m 181.28878,67.811856 q -1.2155,0 -1.97795,-0.795601 -0.76246,-0.801129 -0.76246,-2.138183 v -0.18785 q 0,-0.889532 0.337,-1.585681 0.34256,-0.701681 0.95031,-1.093954 0.61327,-0.397833 1.326,-0.397833 1.16578,0 1.81221,0.76798 0.64643,0.76798 0.64643,2.198958 v 0.425417 h -4.04984 q 0.0219,0.884005 0.51383,1.430979 0.49727,0.541453 1.25971,0.541453 0.54145,0 0.91715,-0.220995 0.3757,-0.220994 0.65748,-0.585651 l 0.62433,0.486198 q -0.75141,1.154731 -2.25421,1.154731 z m -0.12706,-5.359269 q -0.61881,0 -1.03871,0.453054 -0.41991,0.447549 -0.51934,1.259706 h 2.99456 v -0.07735 q -0.0444,-0.779029 -0.41991,-1.204457 -0.3757,-0.430923 -1.0166,-0.430923 z"
       style="font-size:2.11667px;line-height:1.25;font-family:Roboto;-inkscape-font-specification:Roboto;fill:#693685;fill-opacity:1;stroke:#ffffff;stroke-width:1.41663;stroke-miterlimit:4;stroke-dasharray:none;stroke-opacity:1;paint-order:stroke fill markers"
       id="path937" />
    <path
       d="m 188.28347,66.115673 q 0,-0.414351 -0.31492,-0.6409 -0.30942,-0.23206 -1.08844,-0.397779 -0.7735,-0.165773 -1.23207,-0.397779 -0.45306,-0.23206 -0.67406,-0.552502 -0.21549,-0.32048 -0.21549,-0.762458 0,-0.734825 0.61881,-1.243128 0.62433,-0.508276 1.59121,-0.508276 1.0166,0 1.64645,0.524901 0.63538,0.524849 0.63538,1.342582 h -1.02766 q 0,-0.419911 -0.35912,-0.723781 -0.35357,-0.303854 -0.89505,-0.303854 -0.55803,0 -0.87296,0.243072 -0.31492,0.243126 -0.31492,0.635378 0,0.370195 0.29284,0.55803 0.29285,0.18785 1.05528,0.359129 0.76798,0.171278 1.24313,0.408845 0.47513,0.237566 0.70168,0.574601 0.23206,0.331492 0.23206,0.812179 0,0.801123 -0.6409,1.287327 -0.6409,0.480692 -1.66303,0.480692 -0.71826,0 -1.27076,-0.254138 -0.5525,-0.254138 -0.86742,-0.707204 -0.30942,-0.45856 -0.30942,-0.988979 h 1.02213 q 0.0278,0.513836 0.40885,0.817706 0.38676,0.298348 1.0166,0.298348 0.58013,0 0.92821,-0.23206 0.35362,-0.237567 0.35362,-0.629856 z"
       style="font-size:2.11667px;line-height:1.25;font-family:Roboto;-inkscape-font-specification:Roboto;fill:#693685;fill-opacity:1;stroke:#ffffff;stroke-width:1.41663;stroke-miterlimit:4;stroke-dasharray:none;stroke-opacity:1;paint-order:stroke fill markers"
       id="path939" />
    <path
       d="m 191.74765,67.701359 h -1.02213 v -5.978075 h 1.02213 z m -1.105,-7.563756 q 0,-0.248632 0.1492,-0.41991 0.15471,-0.171279 0.45305,-0.171279 0.29835,0 0.45306,0.171279 0.1547,0.171278 0.1547,0.41991 0,0.248632 -0.1547,0.414405 -0.15471,0.165772 -0.45306,0.165772 -0.29834,0 -0.45305,-0.165772 -0.1492,-0.165773 -0.1492,-0.414405 z"
       style="font-size:2.11667px;line-height:1.25;font-family:Roboto;-inkscape-font-specification:Roboto;fill:#693685;fill-opacity:1;stroke:#ffffff;stroke-width:1.41663;stroke-miterlimit:4;stroke-dasharray:none;stroke-opacity:1;paint-order:stroke fill markers"
       id="path941" />
    <path
       d="m 193.13995,64.662595 q 0,-1.39783 0.64643,-2.221058 0.64643,-0.828756 1.71276,-0.828756 1.09396,0 1.70723,0.773507 l 0.0497,-0.663004 h 0.93373 v 5.834423 q 0,1.160253 -0.69063,1.828779 -0.6851,0.668533 -1.84535,0.668533 -0.64643,0 -1.26524,-0.27627 -0.6188,-0.27627 -0.94477,-0.75693 l 0.53041,-0.613273 q 0.65748,0.812173 1.60778,0.812173 0.74588,0 1.16026,-0.41991 0.41991,-0.419911 0.41991,-1.182353 V 67.10462 q -0.61328,0.707204 -1.67408,0.707204 -1.04976,0 -1.70171,-0.845328 -0.64643,-0.845327 -0.64643,-2.303933 z m 1.02766,0.116003 q 0,1.011079 0.41435,1.591208 0.41441,0.574601 1.16025,0.574601 0.96688,0 1.41993,-0.878476 V 63.33657 q -0.46962,-0.856378 -1.40888,-0.856378 -0.74587,0 -1.16578,0.580124 -0.41991,0.580129 -0.41991,1.718282 z"
       style="font-size:2.11667px;line-height:1.25;font-family:Roboto;-inkscape-font-specification:Roboto;fill:#693685;fill-opacity:1;stroke:#ffffff;stroke-width:1.41663;stroke-miterlimit:4;stroke-dasharray:none;stroke-opacity:1;paint-order:stroke fill markers"
       id="path943" />
    <path
       d="m 200.69819,61.723284 0.0331,0.751402 q 0.68511,-0.861905 1.79011,-0.861905 1.89508,0 1.91166,2.138188 v 3.95039 h -1.02213 v -3.955918 q -0.005,-0.646427 -0.29835,-0.95583 -0.28728,-0.309413 -0.90057,-0.309413 -0.49727,0 -0.87296,0.265203 -0.3757,0.265204 -0.58565,0.696154 v 4.259793 h -1.02213 v -5.978075 z"
       style="font-size:2.11667px;line-height:1.25;font-family:Roboto;-inkscape-font-specification:Roboto;fill:#693685;fill-opacity:1;stroke:#ffffff;stroke-width:1.41663;stroke-miterlimit:4;stroke-dasharray:none;stroke-opacity:1;paint-order:stroke fill markers"
       id="path945" />
    <path
       d="m 209.8863,67.701359 h -1.02213 v -5.978075 h 1.02213 z m -1.105,-7.563756 q 0,-0.248632 0.14914,-0.41991 0.15471,-0.171279 0.45306,-0.171279 0.29835,0 0.45305,0.171279 0.15471,0.171278 0.15471,0.41991 0,0.248632 -0.15471,0.414405 -0.1547,0.165772 -0.45305,0.165772 -0.29835,0 -0.45306,-0.165772 -0.14914,-0.165773 -0.14914,-0.414405 z"
       style="font-size:2.11667px;line-height:1.25;font-family:Roboto;-inkscape-font-specification:Roboto;fill:#693685;fill-opacity:1;stroke:#ffffff;stroke-width:1.41663;stroke-miterlimit:4;stroke-dasharray:none;stroke-opacity:1;paint-order:stroke fill markers"
       id="path947" />
    <path
       d="m 212.48858,61.723284 0.0331,0.751402 q 0.6851,-0.861905 1.7901,-0.861905 1.89509,0 1.91166,2.138188 v 3.95039 h -1.02212 v -3.955918 q -0.005,-0.646427 -0.29835,-0.95583 -0.28728,-0.309413 -0.90058,-0.309413 -0.49726,0 -0.87295,0.265203 -0.3757,0.265204 -0.58565,0.696154 v 4.259793 h -1.02214 v -5.978075 z"
       style="font-size:2.11667px;line-height:1.25;font-family:Roboto;-inkscape-font-specification:Roboto;fill:#693685;fill-opacity:1;stroke:#ffffff;stroke-width:1.41663;stroke-miterlimit:4;stroke-dasharray:none;stroke-opacity:1;paint-order:stroke fill markers"
       id="path949" />
    <path
       d="m 250.93721,64.491321 q 0,1.232079 -0.32599,2.36471 -0.32042,1.127104 -0.98898,2.082928 -0.663,0.955831 -1.3923,1.359159 l -0.21549,-0.624328 q 0.85086,-0.651955 1.36468,-2.022158 0.51935,-1.37573 0.53041,-3.049813 v -0.176785 q 0,-1.160253 -0.24307,-2.15476 -0.24313,-1.000029 -0.67958,-1.790103 -0.43098,-0.790079 -0.97241,-1.232083 l 0.21549,-0.624323 q 0.72931,0.403339 1.38678,1.348103 0.663,0.944781 0.98898,2.082934 0.33149,1.138153 0.33149,2.436535 z"
       style="font-size:2.11667px;line-height:1.25;font-family:Roboto;-inkscape-font-specification:Roboto;fill:#693685;fill-opacity:1;stroke:#ffffff;stroke-width:1.417;stroke-miterlimit:4;stroke-dasharray:none;stroke-opacity:1;paint-order:stroke fill markers"
       id="path951" />
    <g
       id="g939"
       transform="matrix(0.94147005,0,0,0.94147005,3.1162099,-6.2343878)">
      <path
         d="m 195.10246,53.991351 h -6.30453 l -1.41594,3.92742 h -2.04639 l 5.74643,-15.0482 h 1.73633 l 5.75676,15.0482 h -2.03605 z m -5.70509,-1.63297 h 5.11598 l -2.56316,-7.03834 z"
         style="font-size:2.11667px;line-height:1.25;font-family:Roboto;-inkscape-font-specification:Roboto;fill:#693685;fill-opacity:1;fill-rule:nonzero;stroke:#fefeff;stroke-width:2;stroke-miterlimit:4;stroke-dasharray:none;stroke-opacity:1;paint-order:stroke fill markers"
         id="path873-5" />
      <path
         d="m 203.47405,55.324611 2.76986,-8.58864 h 1.95338 l -4.0101,11.1828 h -1.45728 l -4.05144,-11.1828 h 1.95337 z"
         style="font-size:2.11667px;line-height:1.25;font-family:Roboto;-inkscape-font-specification:Roboto;fill:#693685;fill-opacity:1;fill-rule:nonzero;stroke:#fefeff;stroke-width:2;stroke-miterlimit:4;stroke-dasharray:none;stroke-opacity:1;paint-order:stroke fill markers"
         id="path875-8" />
      <path
         d="m 216.78592,57.918771 q -0.1654,-0.3307 -0.2687,-1.17822 -1.33326,1.38493 -3.18328,1.38493 -1.65365,0 -2.71818,-0.9302 -1.0542,-0.9405 -1.0542,-2.37712 0,-1.74667 1.32292,-2.70785 1.33325,-0.9715 3.74137,-0.9715 h 1.86036 v -0.8785 q 0,-1.00253 -0.5995,-1.59164 -0.5994,-0.5994 -1.76733,-0.5994 -1.0232,0 -1.71567,0.5168 -0.6925,0.5168 -0.6925,1.25056 h -1.92237 q 0,-0.83719 0.5891,-1.61229 0.5994,-0.7855 1.6123,-1.24024 1.0232,-0.4548 2.24276,-0.4548 1.9327,0 3.02825,0.9715 1.09554,0.9612 1.13688,2.65617 v 5.14698 q 0,1.53996 0.3927,2.44946 v 0.1654 z m -3.17293,-1.45728 q 0.8992,0 1.70532,-0.4651 0.8061,-0.4651 1.16789,-1.20923 v -2.29442 h -1.49862 q -3.514,0 -3.514,2.05672 0,0.8992 0.5995,1.4056 0.5994,0.5064 1.53996,0.5064 z"
         style="font-size:2.11667px;line-height:1.25;font-family:Roboto;-inkscape-font-specification:Roboto;fill:#693685;fill-opacity:1;fill-rule:nonzero;stroke:#fefeff;stroke-width:2;stroke-miterlimit:4;stroke-dasharray:none;stroke-opacity:1;paint-order:stroke fill markers"
         id="path877-0" />
      <path
         d="m 223.47286,57.918771 h -1.91203 v -15.87502 h 1.91203 z"
         style="font-size:2.11667px;line-height:1.25;font-family:Roboto;-inkscape-font-specification:Roboto;fill:#693685;fill-opacity:1;fill-rule:nonzero;stroke:#fefeff;stroke-width:2;stroke-miterlimit:4;stroke-dasharray:none;stroke-opacity:1;paint-order:stroke fill markers"
         id="path879-8" />
      <path
         d="m 226.02568,52.224021 q 0,-1.64331 0.6408,-2.95591 0.6511,-1.31257 1.79834,-2.02571 1.15756,-0.7131 2.63551,-0.7131 2.2841,0 3.6897,1.5813 1.41594,1.58129 1.41594,4.20647 v 0.1343 q 0,1.63298 -0.6305,2.93523 -0.6201,1.29191 -1.78801,2.01538 -1.15755,0.7235 -2.6665,0.7235 -2.27377,0 -3.68971,-1.58131 -1.4056,-1.5813 -1.4056,-4.18579 z m 1.92237,0.2274 q 0,1.86036 0.8578,2.98691 0.8682,1.12655 2.31511,1.12655 1.45727,0 2.3151,-1.13689 0.8578,-1.14722 0.8578,-3.20394 0,-1.83969 -0.8785,-2.97657 -0.8682,-1.14722 -2.3151,-1.14722 -1.41594,0 -2.28411,1.12655 -0.8682,1.12655 -0.8682,3.22461 z"
         style="font-size:2.11667px;line-height:1.25;font-family:Roboto;-inkscape-font-specification:Roboto;fill:#693685;fill-opacity:1;fill-rule:nonzero;stroke:#fefeff;stroke-width:2;stroke-miterlimit:4;stroke-dasharray:none;stroke-opacity:1;paint-order:stroke fill markers"
         id="path882-7" />
      <path
         d="m 240.41242,46.735971 0.062,1.4056 q 1.28157,-1.6123 3.34863,-1.6123 3.54501,0 3.57602,3.99976 v 7.38974 h -1.91203 v -7.40008 q -0.01,-1.20924 -0.5581,-1.788 -0.5374,-0.5788 -1.68465,-0.5788 -0.9302,0 -1.63298,0.4961 -0.7028,0.4961 -1.09554,1.30224 v 7.96853 h -1.91203 v -11.1828 z"
         style="font-size:2.11667px;line-height:1.25;font-family:Roboto;-inkscape-font-specification:Roboto;fill:#693685;fill-opacity:1;fill-rule:nonzero;stroke:#fefeff;stroke-width:2;stroke-miterlimit:4;stroke-dasharray:none;stroke-opacity:1;paint-order:stroke fill markers"
         id="path884-7" />
      <path
         d="M 252.36003,57.918771 H 250.448 v -11.1828 h 1.91203 z m -2.06706,-14.14903 q 0,-0.4651 0.2791,-0.7855 0.2894,-0.3204 0.8475,-0.3204 0.5581,0 0.8475,0.3204 0.2894,0.3204 0.2894,0.7855 0,0.4651 -0.2894,0.7752 -0.2894,0.3101 -0.8475,0.3101 -0.5581,0 -0.8475,-0.3101 -0.2791,-0.3101 -0.2791,-0.7752 z"
         style="font-size:2.11667px;line-height:1.25;font-family:Roboto;-inkscape-font-specification:Roboto;fill:#693685;fill-opacity:1;fill-rule:nonzero;stroke:#fefeff;stroke-width:2;stroke-miterlimit:4;stroke-dasharray:none;stroke-opacity:1;paint-order:stroke fill markers"
         id="path886-4" />
      <path
         d="m 262.32327,57.918771 q -0.1654,-0.3307 -0.2687,-1.17822 -1.33326,1.38493 -3.18326,1.38493 -1.65366,0 -2.7182,-0.9302 -1.0542,-0.9405 -1.0542,-2.37712 0,-1.74667 1.32292,-2.70785 1.33325,-0.9715 3.74138,-0.9715 h 1.86035 v -0.8785 q 0,-1.00253 -0.5994,-1.59164 -0.5994,-0.5994 -1.76733,-0.5994 -1.0232,0 -1.71566,0.5168 -0.6925,0.5168 -0.6925,1.25056 h -1.92236 q 0,-0.83719 0.5891,-1.61229 0.5995,-0.7855 1.61231,-1.24024 1.02319,-0.4548 2.24276,-0.4548 1.9327,0 3.02824,0.9715 1.09554,0.9612 1.13688,2.65617 v 5.14698 q 0,1.53996 0.3927,2.44946 v 0.1654 z m -3.17294,-1.45728 q 0.8992,0 1.70532,-0.4651 0.8062,-0.4651 1.16789,-1.20923 v -2.29443 h -1.49862 q -3.514,0 -3.514,2.05672 0,0.8992 0.5995,1.4056 0.5994,0.5064 1.53996,0.5064 z"
         style="font-size:2.11667px;line-height:1.25;font-family:Roboto;-inkscape-font-specification:Roboto;fill:#693685;fill-opacity:1;fill-rule:nonzero;stroke:#fefeff;stroke-width:2;stroke-miterlimit:4;stroke-dasharray:none;stroke-opacity:1;paint-order:stroke fill markers"
         id="path888-8" />
      <path
         d="m 180.34364,56.916071 q 0,-0.4961 0.28941,-0.8268 0.29969,-0.3307 0.88879,-0.3307 0.5891,0 0.8888,0.3307 0.31011,0.3307 0.31011,0.8268 0,0.4754 -0.31011,0.7958 -0.2997,0.3204 -0.8888,0.3204 -0.5891,0 -0.88879,-0.3204 -0.28941,-0.3204 -0.28941,-0.7958 z"
         style="font-size:2.11667px;line-height:1.25;font-family:Roboto;-inkscape-font-specification:Roboto;fill:url(#linearGradient1275);fill-opacity:1;fill-rule:nonzero;stroke:#fefeff;stroke-width:2;stroke-miterlimit:4;stroke-dasharray:none;stroke-opacity:1;paint-order:stroke fill markers"
         id="path890-0" />
      <path
         d="m 104.97852,42.870391 4.9196,12.27834 4.91961,-12.27834 h 2.57349 v 15.0482 h -1.98438 v -5.86012 l 0.186,-6.3252 -4.94027,12.18532 h -1.51929 l -4.92994,-12.15432 0.1964,6.2942 v 5.86012 h -1.98438 v -15.0482 z"
         style="font-size:2.11667px;line-height:1.25;font-family:Roboto;-inkscape-font-specification:Roboto;fill:#a973c6;fill-opacity:1;fill-rule:nonzero;stroke:#fefeff;stroke-width:2;stroke-miterlimit:4;stroke-dasharray:none;stroke-opacity:1;paint-order:stroke fill markers"
         id="path892-7" />
      <path
         d="m 127.49914,57.918591 q -0.1654,-0.3307 -0.2687,-1.17822 -1.33325,1.38493 -3.18327,1.38493 -1.65365,0 -2.71819,-0.9302 -1.0542,-0.9405 -1.0542,-2.37712 0,-1.74667 1.32292,-2.70785 1.33326,-0.9715 3.74138,-0.9715 h 1.86036 v -0.8785 q 0,-1.00252 -0.5995,-1.59164 -0.5994,-0.5994 -1.76734,-0.5994 -1.02319,0 -1.71566,0.5168 -0.6925,0.5168 -0.6925,1.25057 h -1.92237 q 0,-0.8372 0.5891,-1.6123 0.5994,-0.7855 1.61231,-1.24024 1.02319,-0.4548 2.24276,-0.4548 1.9327,0 3.02824,0.9715 1.09555,0.9612 1.13689,2.65617 v 5.14698 q 0,1.53996 0.3927,2.44946 v 0.1654 z m -3.17294,-1.45728 q 0.8992,0 1.70533,-0.4651 0.8061,-0.4651 1.16789,-1.20923 v -2.29443 h -1.49862 q -3.51401,0 -3.51401,2.05672 0,0.8992 0.5994,1.4056 0.5995,0.5064 1.53996,0.5064 z"
         style="font-size:2.11667px;line-height:1.25;font-family:Roboto;-inkscape-font-specification:Roboto;fill:#a973c6;fill-opacity:1;fill-rule:nonzero;stroke:#fefeff;stroke-width:2;stroke-miterlimit:4;stroke-dasharray:none;stroke-opacity:1;paint-order:stroke fill markers"
         id="path894-6" />
      <path
         d="m 134.70285,44.027941 v 2.70785 h 2.08774 v 1.47795 h -2.08774 v 6.93499 q 0,0.6718 0.2791,1.01286 0.2791,0.3307 0.9509,0.3307 0.3307,0 0.9095,-0.124 v 1.5503 q -0.7545,0.2067 -1.46762,0.2067 -1.28157,0 -1.9327,-0.7752 -0.6511,-0.7752 -0.6511,-2.20142 v -6.93499 h -2.03606 v -1.47795 h 2.03606 v -2.70785 z"
         style="font-size:2.11667px;line-height:1.25;font-family:Roboto;-inkscape-font-specification:Roboto;fill:#a973c6;fill-opacity:1;fill-rule:nonzero;stroke:#fefeff;stroke-width:2;stroke-miterlimit:4;stroke-dasharray:none;stroke-opacity:1;paint-order:stroke fill markers"
         id="path896-0" />
      <path
         d="m 143.66355,58.125301 q -2.27377,0 -3.70004,-1.48829 -1.42627,-1.49862 -1.42627,-3.99976 v -0.3514 q 0,-1.66398 0.6304,-2.96623 0.6408,-1.31259 1.77767,-2.04639 1.14722,-0.7441 2.48048,-0.7441 2.18075,0 3.38998,1.4366 1.20924,1.43661 1.20924,4.11345 v 0.7958 h -7.57579 q 0.041,1.65365 0.9612,2.67685 0.9302,1.01286 2.35646,1.01286 1.01285,0 1.71565,-0.4134 0.7028,-0.4134 1.2299,-1.09554 l 1.16789,0.9095 q -1.4056,2.16008 -4.2168,2.16008 z m -0.2377,-10.02525 q -1.15756,0 -1.94304,0.8475 -0.7855,0.8372 -0.9715,2.35645 h 5.60173 v -0.1447 q -0.083,-1.45728 -0.7855,-2.25309 -0.7028,-0.8062 -1.90169,-0.8062 z"
         style="font-size:2.11667px;line-height:1.25;font-family:Roboto;-inkscape-font-specification:Roboto;fill:#a973c6;fill-opacity:1;fill-rule:nonzero;stroke:#fefeff;stroke-width:2;stroke-miterlimit:4;stroke-dasharray:none;stroke-opacity:1;paint-order:stroke fill markers"
         id="path898-4" />
      <path
         d="m 155.64217,48.451451 q -0.4341,-0.072 -0.9405,-0.072 -1.88103,0 -2.55282,1.60197 v 7.93751 h -1.91203 v -11.1828 h 1.86035 l 0.031,1.29192 q 0.94051,-1.49862 2.6665,-1.49862 0.5581,0 0.8475,0.1447 z"
         style="font-size:2.11667px;line-height:1.25;font-family:Roboto;-inkscape-font-specification:Roboto;fill:#a973c6;fill-opacity:1;fill-rule:nonzero;stroke:#fefeff;stroke-width:2;stroke-miterlimit:4;stroke-dasharray:none;stroke-opacity:1;paint-order:stroke fill markers"
         id="path900-8" />
      <path
         d="m 159.47656,57.918591 h -1.91203 v -11.1828 h 1.91203 z m -2.06706,-14.14903 q 0,-0.4651 0.2791,-0.7855 0.2894,-0.3204 0.8475,-0.3204 0.5581,0 0.8475,0.3204 0.2894,0.3204 0.2894,0.7855 0,0.4651 -0.2894,0.7752 -0.2894,0.3101 -0.8475,0.3101 -0.5581,0 -0.8475,-0.3101 -0.2791,-0.3101 -0.2791,-0.7752 z"
         style="font-size:2.11667px;line-height:1.25;font-family:Roboto;-inkscape-font-specification:Roboto;fill:#a973c6;fill-opacity:1;fill-rule:nonzero;stroke:#fefeff;stroke-width:2;stroke-miterlimit:4;stroke-dasharray:none;stroke-opacity:1;paint-order:stroke fill markers"
         id="path902-1" />
      <path
         d="m 169.4398,57.918591 q -0.16541,-0.3307 -0.2687,-1.17822 -1.33326,1.38493 -3.18328,1.38493 -1.65365,0 -2.71818,-0.9302 -1.05421,-0.9405 -1.05421,-2.37712 0,-1.74667 1.32292,-2.70785 1.33326,-0.9715 3.74138,-0.9715 h 1.86036 v -0.8785 q 0,-1.00252 -0.5994,-1.59164 -0.5994,-0.5994 -1.76734,-0.5994 -1.02319,0 -1.71566,0.5168 -0.6925,0.5168 -0.6925,1.25057 h -1.92237 q 0,-0.8372 0.5891,-1.6123 0.5995,-0.7855 1.61231,-1.24024 1.0232,-0.4548 2.24276,-0.4548 1.9327,0 3.02824,0.9715 1.09556,0.9612 1.13689,2.65617 v 5.14698 q 0,1.53996 0.3927,2.44946 v 0.1654 z m -3.17295,-1.45728 q 0.8992,0 1.70533,-0.4651 0.8062,-0.4651 1.1679,-1.20923 v -2.29443 h -1.49863 q -3.514,0 -3.514,2.05672 0,0.8992 0.5994,1.4056 0.5994,0.5064 1.53996,0.5064 z"
         style="font-size:2.11667px;line-height:1.25;font-family:Roboto;-inkscape-font-specification:Roboto;fill:#a973c6;fill-opacity:1;fill-rule:nonzero;stroke:#fefeff;stroke-width:2;stroke-miterlimit:4;stroke-dasharray:none;stroke-opacity:1;paint-order:stroke fill markers"
         id="path904-0" />
      <path
         d="m 176.12673,57.918591 h -1.91203 v -15.87502 h 1.91203 z"
         style="font-size:2.11667px;line-height:1.25;font-family:Roboto;-inkscape-font-specification:Roboto;fill:#a973c6;fill-opacity:1;fill-rule:nonzero;stroke:#fefeff;stroke-width:2;stroke-miterlimit:4;stroke-dasharray:none;stroke-opacity:1;paint-order:stroke fill markers"
         id="path906-1" />
    </g>
    <text
       xml:space="preserve"
       style="font-size:11.28888889px;line-height:1.25;font-family:Roboto;-inkscape-font-specification:Roboto;fill:#693685;fill-opacity:1;stroke:#ffffff;stroke-width:1.417;stroke-miterlimit:4;stroke-dasharray:none;stroke-opacity:1;paint-order:markers stroke fill"
       x="97.847229"
       y="89.012039"
       id="text920"><tspan
         sodipodi:role="line"
         x="97.847229"
         y="89.012039"
         style="font-style:normal;font-variant:normal;font-weight:normal;font-stretch:normal;font-family:Roboto;-inkscape-font-specification:Roboto;fill:#693685;fill-opacity:1;stroke:#ffffff;stroke-width:1.417;stroke-miterlimit:4;stroke-dasharray:none;stroke-opacity:1;font-size:11.28888889px;paint-order:markers stroke fill"
         id="tspan1101">Materialize your Avalonia Application</tspan></text>
  </g>
  <style
     type="text/css"
     id="style2">
	.st0{fill:#FFFFFF;}
	.st1{fill:none;stroke:url(#SVGID_1_);stroke-width:60;stroke-miterlimit:10;}
	.st2{fill:#8B44AC;}
	.st3{fill:#5D2F75;stroke:#FFFFFF;stroke-width:10;stroke-miterlimit:10;}
</style>
</svg>
